<svg class="partner_logo-img" width="135" height="33" viewBox="0 0 135 33" fill="none" xmlns="http://www.w3.org/2000/svg">
<g opacity="0.82">
<path d="M4.31196 18.2571V26.4475H0V1.60815H10.6016C12.5144 1.60815 14.0058 1.87621 15.1081 2.41231C16.2104 2.94841 16.9885 3.81213 17.4748 5.03324C17.9611 6.25436 18.188 7.89245 18.188 10.0071C18.188 12.9556 17.6693 15.0702 16.5994 16.3509C15.5295 17.6316 13.7464 18.2869 11.2824 18.2869H4.31196V18.2571ZM4.31196 15.1298H10.634C11.7687 15.1298 12.5468 15.0107 12.9683 14.7724C13.3898 14.5342 13.6167 14.0874 13.6167 13.4619V6.58198C13.6167 5.95653 13.3898 5.50978 12.9683 5.27151C12.5468 5.03324 11.7687 4.91411 10.634 4.91411H4.31196V15.1298Z" fill="#4F4F51"/>
<path d="M27.0066 23.4991C27.2659 23.5289 27.5901 23.5587 27.9467 23.5884C28.3034 23.6182 28.66 23.648 29.0166 23.6778L28.7573 26.3881C28.1413 26.537 27.6225 26.6561 27.2011 26.7157C26.7796 26.7753 26.3257 26.805 25.9042 26.805C24.8019 26.805 23.9914 26.5668 23.4727 26.0605C22.954 25.5839 22.6946 24.8095 22.6946 23.8267V0.595668L27.0066 0V23.4991Z" fill="#4F4F51"/>
<path d="M51.7435 6.58203V26.4476H49.7659L48.5987 24.4521C47.4316 25.286 46.1996 25.8817 44.8055 26.2689C43.4438 26.656 41.8876 26.8347 40.1045 26.8347C38.1592 26.8347 36.7003 26.5071 35.7925 25.8221C34.8847 25.1371 34.3984 24.0947 34.3984 22.6651V6.58203H38.7104V23.7671H43.7356C45.1621 23.7671 46.1347 23.5884 46.6535 23.2607C47.1722 22.9331 47.3992 22.3374 47.3992 21.4439V6.55225H51.7435V6.58203Z" fill="#4F4F51"/>
<path d="M66.106 20.6398C63.9338 20.6398 62.2479 20.4016 61.0159 19.9548C59.7839 19.5081 58.9086 18.7635 58.3899 17.6913C57.8711 16.6191 57.5793 15.1895 57.5793 13.3131C57.5793 11.4665 57.8387 10.0072 58.3899 8.93496C58.9086 7.86276 59.8164 7.11817 61.0159 6.64163C62.2479 6.1651 63.9338 5.95662 66.106 5.95662C68.2458 5.95662 69.9316 6.19488 71.1961 6.64163C72.4605 7.11817 73.3358 7.86276 73.887 8.93496C74.4057 10.0072 74.6975 11.4665 74.6975 13.2833C74.6975 15.1299 74.4381 16.5893 73.9194 17.6615C73.4006 18.7337 72.5253 19.4783 71.2609 19.925C69.9641 20.4313 68.2782 20.6398 66.106 20.6398ZM74.9244 27.9963C74.9244 29.2472 74.6651 30.2301 74.1139 30.9449C73.5628 31.6597 72.655 32.1958 71.423 32.5234C70.1586 32.851 68.4727 32.9999 66.3329 32.9999C64.7767 32.9999 63.253 32.8808 61.7616 32.6723C60.2703 32.4638 59.0058 32.166 57.936 31.8086L58.4871 28.8005C59.9461 29.1579 61.2105 29.3961 62.2804 29.5451C63.3502 29.694 64.4201 29.7535 65.5224 29.7535C66.6896 29.7535 67.6946 29.7238 68.5375 29.6642C69.4129 29.6046 70.2234 29.4855 71.0339 29.3366V26.388C68.0837 26.2391 66.0087 26.0306 64.7768 25.7626C63.5448 25.4945 62.9288 25.1371 62.9288 24.6904L64.2256 20.1335H66.9814L66.722 23.5586C68.4403 23.7075 69.8668 23.916 70.9367 24.1245C72.0066 24.333 72.8495 24.601 73.4007 24.9286C73.9518 25.2563 74.3409 25.6434 74.5678 26.1498C74.8272 26.5965 74.9244 27.222 74.9244 27.9963ZM61.8589 18.0189H67.2083C68.3755 18.0189 69.2184 17.8402 69.6723 17.4828C70.1262 17.1254 70.3531 16.4701 70.3531 15.5469V8.60734H65.0037C63.8365 8.60734 62.9936 8.78604 62.5397 9.14344C62.0858 9.50084 61.8589 10.1561 61.8589 11.0794V18.0189ZM71.812 7.71384L67.7919 7.44579L68.2782 3.21654L71.2933 3.09741L71.812 7.71384ZM61.1132 3.09741L64.1283 3.21654L64.6146 7.44579L60.5945 7.71384L61.1132 3.09741Z" fill="#4F4F51"/>
<path d="M83.5159 26.4475L85.3314 1.63794H91.2968L97.2947 20.2228H97.5865L103.584 1.63794H109.55L111.365 26.4475H107.118L105.724 6.87982H105.465L99.2075 26.4475H95.7061L89.4489 6.87982H89.1895L87.7954 26.4475H83.5159Z" fill="#4F4F51"/>
<path d="M125.63 26.835C123.977 26.835 122.615 26.686 121.513 26.3584C120.411 26.0308 119.568 25.4947 118.952 24.7203C118.336 23.946 117.882 22.9036 117.622 21.5633C117.363 20.223 117.233 18.5254 117.233 16.5001C117.233 13.8792 117.525 11.8241 118.076 10.3052C118.627 8.78623 119.568 7.74381 120.897 7.11836C122.226 6.4929 124.042 6.19507 126.344 6.19507C128.613 6.19507 130.396 6.37377 131.628 6.70139C132.893 7.05879 133.768 7.65446 134.254 8.51818C134.741 9.3819 135 10.603 135 12.1517C135 13.5218 134.838 14.6536 134.514 15.4875C134.189 16.3214 133.606 16.9767 132.698 17.3936C131.79 17.8106 130.493 18.1084 128.71 18.2574C126.96 18.4063 124.625 18.4658 121.74 18.4658H120.443V15.8747H127.446C128.872 15.8747 129.813 15.696 130.331 15.3684C130.85 15.0407 131.077 14.4451 131.077 13.5516V9.41168H125.339C123.944 9.41168 123.004 9.56059 122.518 9.88821C121.999 10.2158 121.772 10.8115 121.772 11.705V23.2312C122.939 23.529 124.463 23.6779 126.408 23.6779C127.576 23.6779 128.71 23.6184 129.845 23.4694C130.98 23.3205 132.341 23.0823 133.898 22.7249L134.449 25.6138C133.379 25.9712 132.05 26.2691 130.493 26.4776C128.905 26.7456 127.284 26.835 125.63 26.835Z" fill="#4F4F51"/>
</g>
</svg>
