<svg width="82" height="40" viewBox="0 0 82 40" fill="none" xmlns="http://www.w3.org/2000/svg">
<path d="M81.7129 30.283V39.7169H53.1038V37.9245H54.4433V37.3584C55.7829 37.3584 56.4527 37.0754 56.4527 35.849V34.0565C56.4527 32.8301 55.8786 32.5471 54.4433 32.5471V32.0754V30.283H81.7129ZM79.0338 36.415V35.849C79.0338 34.7169 78.5553 34.3396 77.1201 34.3396H76.9287V32.0754H75.5892V37.9245H76.9287C78.4597 37.9245 79.0338 37.7358 79.0338 36.415ZM67.5518 33.1131V32.0754H64.2986V33.1131H65.2555V37.9245H66.595V33.1131H67.5518Z" fill="#4F4F51"/>
<path d="M81.6172 12.3584V26.0376H78.938V17.4527H78.8424L77.4071 26.0376H75.3021L73.9625 17.4527H73.8669V26.0376H71.1877V12.3584H74.6323L76.3546 21.981L78.0769 12.3584H81.6172Z" fill="#4F4F51"/>
<path d="M69.3698 14.8112V23.5848C69.3698 24.5282 69.2741 26.0376 67.3604 26.0376H65.1597C63.2461 26.0376 63.1504 24.5282 63.1504 23.5848V14.8112C63.1504 13.8678 63.2461 12.3584 65.1597 12.3584H67.3604C69.2741 12.3584 69.3698 13.8678 69.3698 14.8112ZM66.6906 23.7735V14.4339C66.6906 14.2452 66.4993 13.9622 66.3079 13.9622C66.1166 13.9622 65.9252 14.0565 65.9252 14.4339V23.7735C65.9252 24.1509 66.2122 24.2452 66.3079 24.2452C66.4993 24.2452 66.6906 24.0565 66.6906 23.7735Z" fill="#4F4F51"/>
<path d="M61.4281 14.8112V18.9622C61.4281 19.9056 61.3324 21.415 59.4188 21.415H57.8879V26.0376H55.2087V12.3584H59.4188C61.3324 12.3584 61.4281 13.8678 61.4281 14.8112ZM58.749 19.1509V14.7169C58.749 14.2452 58.5576 14.0565 58.2706 14.0565H57.8879V19.9056H58.2706C58.5576 19.9056 58.749 19.6225 58.749 19.1509Z" fill="#4F4F51"/>
<path d="M54.4433 30.283V32.0754H53.1037V32.5471C51.6685 32.5471 51.0944 32.8301 51.0944 34.0565V35.849C51.0944 37.0754 51.6685 37.3584 53.1037 37.3584V37.9245V39.7169H40.3779V37.9245H43.057V36.8867H41.7175V35.3773H42.8657V34.4339H41.7175V33.1131H42.9614V32.0754V30.283H54.4433Z" fill="#4F4F51"/>
<path d="M53.4865 12.3584V26.0376H50.8073V14.0565H49.9462V26.0376H47.2671V12.3584H53.4865Z" fill="#4F4F51"/>
<path d="M45.5448 20.8489V23.5848C45.5448 24.5282 45.4491 26.0376 43.5355 26.0376H41.3348C39.4211 26.0376 39.3254 24.5282 39.3254 23.5848V21.2263H42.0046V23.7735C42.0046 24.1508 42.2916 24.2452 42.3873 24.2452C42.6743 24.2452 42.77 24.0565 42.77 23.7735V20.5659C42.77 20.1886 42.6743 19.7169 41.7175 19.7169H40.665V18.2074H41.8132C42.5786 18.2074 42.8657 18.0188 42.8657 17.1697V14.4338C42.8657 14.2452 42.6743 13.9622 42.483 13.9622C42.2916 13.9622 42.1002 14.0565 42.1002 14.4338V16.698H39.4211V14.7169C39.4211 13.7735 39.5168 12.264 41.4305 12.264H43.6312C45.5448 12.264 45.6405 13.7735 45.6405 14.7169V16.981C45.6405 18.4905 44.588 18.8678 43.8225 18.8678V18.9621C45.4491 18.9621 45.5448 20.3772 45.5448 20.8489Z" fill="#4F4F51"/>
<path d="M42.9614 30.283V32.0754H40.378V37.9245V39.7169H25.9299V30.283H42.9614ZM32.0536 37.9245V32.0754H30.6184V34.3396H29.9486V32.0754H28.5134V37.9245H29.9486V35.3773H30.6184V37.9245H32.0536Z" fill="#4F4F51"/>
<path d="M36.742 12.3584L38.1772 26.0376H35.5938L35.3067 22.3584H34.0629L33.7758 26.0376H31.1924L32.5319 12.3584H36.742ZM35.2111 20.849L34.7326 14.0565H34.5413L34.0629 20.849H35.2111Z" fill="#4F4F51"/>
<path d="M31.0968 12.3584V14.0565H28.609V26.0376H25.9299V12.3584H31.0968Z" fill="#4F4F51"/>
<path d="M24.2068 26.132V35.4716C21.6233 38.1131 18.0831 39.8112 14.0644 39.8112C6.4098 39.8112 0.19043 33.6792 0.19043 26.132C0.19043 18.5848 6.4098 12.4528 14.0644 12.4528V12.8301V22.7358C12.0551 22.7358 10.0457 23.4905 8.51482 24.9999C8.13209 25.3773 7.84504 25.7546 7.55799 26.132C5.64434 29.0565 5.93139 33.2075 8.6105 35.849C10.1414 37.3584 12.1508 38.1131 14.1601 38.1131C16.1694 38.1131 18.0831 37.3584 19.614 35.849C21.1449 34.3395 21.1449 31.8867 19.614 30.3773C18.0831 28.8679 15.5953 28.8679 14.0644 30.3773V26.132H19.1356H20.5708H24.2068Z" fill="#4F4F51"/>
<path d="M22.3898 7.35843C23.2509 11.0377 23.2509 13.3018 22.8682 15.849C22.1984 20.4716 20.0934 24.0565 19.1366 25.1886C18.4668 24.3396 17.51 22.7358 16.8402 21.2264C16.8402 21.2264 15.5963 18.3018 15.3093 15.4716C15.2136 14.5282 15.1179 13.6792 15.1179 12.7358C15.1179 10.7547 15.405 8.67918 16.0747 6.50937C16.9359 3.58485 18.6582 0.943336 19.1366 0.282959C19.4236 0.754657 21.5287 3.67918 22.3898 7.35843ZM22.1984 13.5848C22.1984 12.1697 22.1027 9.81126 21.433 7.35843C20.7632 4.9056 19.4236 2.54711 19.2323 2.16975C19.0409 2.45277 17.9884 4.4339 17.0316 7.35843C16.7445 8.20749 16.3618 10.1886 16.2661 12.0754C16.1704 14.3396 16.4575 16.6981 16.6488 17.2641C16.6488 16.5094 16.6488 13.9622 17.1273 11.8867C17.6057 9.81126 18.5625 7.35843 19.2323 6.13201C19.9977 7.45277 21.0502 10.283 21.433 11.8867C21.8157 13.5848 22.0071 15.7547 21.9114 17.2641C22.0071 16.5094 22.1027 14.9999 22.1984 13.5848ZM19.1366 24.3396C19.615 23.5848 20.2848 21.7924 20.2848 19.6226C20.1891 17.3584 19.4236 15.7547 19.1366 15.3773C18.8495 15.7547 17.9884 17.6414 17.9884 19.9056C18.0841 22.0754 18.7539 23.5848 19.1366 24.3396Z" fill="#4F4F51"/>
<path d="M77.3115 35.3773H77.0244V36.8868H77.3115C77.5985 36.8868 77.6942 36.7924 77.6942 36.5094V35.849C77.6942 35.4717 77.5985 35.3773 77.3115 35.3773Z" fill="#4F4F51"/>
<path d="M55.1131 34.0575V35.9443C55.1131 36.3217 55.0175 36.416 54.7304 36.416H54.5391V33.6802H54.7304C55.0175 33.6802 55.1131 33.7745 55.1131 34.0575Z" fill="white"/>
<path d="M53.1039 33.6793V36.4151H52.9125C52.6255 36.4151 52.5298 36.3208 52.5298 35.9434V34.0567C52.5298 33.6793 52.6255 33.585 52.9125 33.585H53.1039V33.6793Z" fill="white"/>
<path d="M55.1131 34.0575V35.9443C55.1131 36.3217 55.0175 36.416 54.7304 36.416H54.5391V33.6802H54.7304C55.0175 33.6802 55.1131 33.7745 55.1131 34.0575Z" fill="#4F4F51"/>
<path d="M53.1039 33.6793V36.4151H52.9125C52.6255 36.4151 52.5298 36.3208 52.5298 35.9434V34.0567C52.5298 33.6793 52.6255 33.585 52.9125 33.585H53.1039V33.6793Z" fill="#4F4F51"/>
</svg>