<svg width="147" height="40" viewBox="0 0 147 40" fill="none" xmlns="http://www.w3.org/2000/svg">
<g clip-path="url(#clip0)">
<path fill-rule="evenodd" clip-rule="evenodd" d="M16.5847 8.3103C19.1617 14.8477 14.9041 19.0582 10.7585 23.158C6.72494 27.4793 3.36366 31.9114 10.3103 40.0001C7.73333 33.4627 11.9909 29.2521 16.1365 25.1524C20.058 20.8311 23.5313 16.3989 16.5847 8.3103Z" fill="#E9444B"/>
<path fill-rule="evenodd" clip-rule="evenodd" d="M10.3103 0C12.8873 6.5374 8.74173 10.7479 4.4841 14.8476C0.56261 19.169 -2.91071 23.6011 4.03593 31.5789C1.34691 25.1524 5.60453 20.9418 9.86215 16.7313C13.7836 12.41 17.257 7.97784 10.3103 0Z" fill="#71BB74"/>
<path fill-rule="evenodd" clip-rule="evenodd" d="M116.975 25.8171V39.1135H122.913V34.2382H129.412V31.3573H122.913V28.698H135.686V39.1135H141.625V28.698H147.003V25.8171H116.975Z" fill="#71BB74"/>
<path fill-rule="evenodd" clip-rule="evenodd" d="M104.314 36.2327V33.9058H112.044V31.0249H104.314V28.698H114.173V25.8171H98.3752V39.1135H114.285V36.2327H104.314Z" fill="#71BB74"/>
<path fill-rule="evenodd" clip-rule="evenodd" d="M42.1266 25.8171H25.7681V28.698H31.0342V39.1135H36.8605V28.698H42.1266V25.8171Z" fill="#E9444B"/>
<path fill-rule="evenodd" clip-rule="evenodd" d="M53.7837 25.8171H49.302V29.0304L49.414 28.9196L51.991 34.0166H49.302V36.7867H53.4476L54.68 39.1135H61.1785L53.7837 25.8171ZM49.1899 25.8171H47.3973L40.0024 39.1135H43.8119L45.0444 36.7867H49.1899V34.0166H46.5009L49.1899 29.0304V25.8171Z" fill="#E9444B"/>
<path fill-rule="evenodd" clip-rule="evenodd" d="M91.2065 25.8171V32.4653L81.6829 25.8171H77.2012V39.1135H81.2347V31.8005L90.8704 39.1135H95.24V25.8171H91.2065Z" fill="#71BB74"/>
<path fill-rule="evenodd" clip-rule="evenodd" d="M75.1836 25.8171H59.1626V28.698H64.4282V39.1135H70.254V28.698H75.1836V25.8171Z" fill="#E9444B"/>
</g>
<defs>
<clipPath id="clip0">
<rect width="147" height="40" fill="white"/>
</clipPath>
</defs>
</svg>