<svg width="40" height="40" viewBox="0 0 40 40" fill="none" xmlns="http://www.w3.org/2000/svg">
<path d="M0 0H40V40H0V0Z" fill="#4F4F51"/>
<path d="M35.5751 7.60775L31.0788 14.8458C30.5698 15.6501 30.6547 16.285 30.9092 16.9199L37.7384 34.3167H9.48817C6.9431 34.3167 4.99188 32.285 4.99188 29.8723L4.94946 6.67652C5.0343 3.67123 9.40333 3.62891 9.48817 6.67652V28.3908C9.48817 29.0681 10.082 29.8723 10.888 29.83H31.5879L26.2432 17.2585C26.116 16.7929 25.9887 16.285 25.9887 15.8194C25.9887 15.2691 26.2432 14.4226 26.5826 13.7453L31.503 5.66064C31.8848 4.94106 32.6059 4.43313 33.4542 4.3908C34.6844 4.34847 35.7448 5.19504 35.7872 6.46488C35.7448 6.76118 35.7024 7.35378 35.5751 7.60775Z" fill="white"/>
<path d="M19.9934 22.2117V6.67732C19.9934 3.6297 24.4472 3.6297 24.4897 6.67732V22.381C24.4897 25.9789 21.8173 28.3493 18.5087 28.3493C15.2002 28.3493 12.5278 25.8942 12.5278 22.381V6.67732C12.5278 3.6297 17.0241 3.6297 17.0241 6.67732V22.2117C16.9817 24.3281 19.9934 24.4551 19.9934 22.2117Z" fill="white"/>
</svg>