<svg width="191" height="56" viewBox="0 0 191 56" fill="none" xmlns="http://www.w3.org/2000/svg">
<path d="M179.451 0H11.5495C5.17087 0 0 5.13878 0 11.4778V44.5222C0 50.8612 5.17087 56 11.5495 56H179.451C185.829 56 191 50.8612 191 44.5222V11.4778C191 5.13878 185.829 0 179.451 0Z" fill="#4F4F51"/>
<path d="M66.0296 25.3027H68.869L75.5953 43.7262H72.8443L70.9642 38.2078H63.6318L61.6254 43.7262H59.051L66.0296 25.3027ZM70.1556 36.176L67.3405 28.0367L64.3494 36.176H70.1556Z" fill="white"/>
<path d="M77.4925 30.3577H79.7136V32.1383C80.1695 31.5283 80.6663 31.056 81.2039 30.7214C81.9715 30.2196 82.8731 29.9688 83.9086 29.9688C85.4442 29.9688 86.7476 30.552 87.8188 31.7186C88.89 32.8852 89.4256 34.5511 89.4256 36.7164C89.4256 39.642 88.6528 41.7321 87.1073 42.9869C86.1277 43.7811 84.987 44.1783 83.685 44.1783C82.6635 44.1783 81.8063 43.9567 81.1134 43.5135C80.7086 43.2626 80.2567 42.832 79.7578 42.2216V49.0823H77.4858L77.4925 30.3577ZM86.0392 40.8859C86.7435 40.0042 87.0959 38.6853 87.0962 36.9293C87.0962 35.8592 86.94 34.9395 86.6276 34.1701C86.037 32.6901 84.9564 31.9501 83.3859 31.9501C81.8072 31.9501 80.7268 32.732 80.1447 34.2957C79.8323 35.1317 79.6761 36.1935 79.6761 37.4811C79.6761 38.5178 79.8323 39.3999 80.1447 40.1273C80.7335 41.5169 81.8138 42.2118 83.3859 42.2118C84.4497 42.2103 85.3342 41.7683 86.0392 40.8859Z" fill="white"/>
<path d="M92.4967 30.3577H94.7184V32.1383C95.174 31.5283 95.6707 31.056 96.2087 30.7214C96.9767 30.2196 97.8783 29.9688 98.9134 29.9688C100.449 29.9688 101.752 30.552 102.824 31.7186C103.895 32.8852 104.431 34.5511 104.433 36.7164C104.433 39.642 103.66 41.7321 102.115 42.9869C101.135 43.7811 99.9945 44.1783 98.6926 44.1783C97.6704 44.1783 96.8131 43.9567 96.121 43.5135C95.7162 43.2626 95.2643 42.832 94.7653 42.2216V49.0823H92.4934L92.4967 30.3577ZM101.043 40.8859C101.748 40.0042 102.1 38.6853 102.1 36.9293C102.1 35.8592 101.944 34.9395 101.632 34.1701C101.041 32.6901 99.9607 31.9501 98.3901 31.9501C96.8115 31.9501 95.7309 32.732 95.1484 34.2957C94.8367 35.1317 94.6807 36.1935 94.6803 37.4811C94.6803 38.5178 94.8363 39.3999 95.1484 40.1273C95.7397 41.5169 96.8203 42.2118 98.3901 42.2118C99.454 42.2103 100.338 41.7683 101.043 40.8859Z" fill="white"/>
<path d="M114.083 37.7826C114.14 38.8274 114.38 39.676 114.801 40.3284C115.603 41.5494 117.017 42.1598 119.043 42.1594C119.951 42.1594 120.777 42.0256 121.523 41.7579C122.966 41.24 123.687 40.3121 123.687 38.974C123.687 37.9709 123.381 37.256 122.77 36.8292C122.151 36.4112 121.181 36.0475 119.861 35.7381L117.428 35.1737C115.839 34.8061 114.714 34.4008 114.054 33.9575C112.913 33.1896 112.342 32.0398 112.342 30.5083C112.342 28.8528 112.903 27.4942 114.025 26.4326C115.146 25.371 116.735 24.8407 118.79 24.8418C120.681 24.8418 122.288 25.3079 123.61 26.24C124.932 27.1722 125.593 28.6626 125.594 30.7112H123.233C123.113 29.7239 122.855 28.9672 122.461 28.4414C121.726 27.4799 120.48 26.9992 118.722 26.9992C117.302 26.9992 116.282 27.3084 115.661 27.9268C115.04 28.5452 114.729 29.2644 114.729 30.0843C114.729 30.9872 115.096 31.6476 115.83 32.0656C116.311 32.3333 117.399 32.6677 119.095 33.0689L121.613 33.6586C122.828 33.9427 123.765 34.3315 124.426 34.8248C125.566 35.686 126.137 36.936 126.137 38.5747C126.137 40.6149 125.408 42.0738 123.952 42.9515C122.496 43.8292 120.803 44.268 118.874 44.268C116.626 44.268 114.866 43.6829 113.594 42.5127C112.322 41.3509 111.699 39.7749 111.724 37.7848L114.083 37.7826Z" fill="white"/>
<path d="M129.833 26.5449H132.13V30.2953H134.288V32.1385H132.13V40.9053C132.13 41.3738 132.29 41.6874 132.61 41.8461C132.786 41.9375 133.081 41.9834 133.493 41.9838C133.603 41.9838 133.721 41.981 133.846 41.9755C133.972 41.9701 134.122 41.9558 134.288 41.9338V43.727C134.021 43.8039 133.749 43.8589 133.474 43.8916C133.17 43.9264 132.865 43.9432 132.559 43.9421C131.499 43.9421 130.78 43.6724 130.401 43.133C130.022 42.5936 129.832 41.8933 129.833 41.032V32.1385H128.002V30.2953H129.833L129.833 26.5449Z" fill="white"/>
<path d="M147.193 31.6345C148.387 32.7875 148.984 34.4833 148.984 36.7217C148.984 38.8855 148.458 40.6732 147.406 42.0848C146.353 43.4964 144.72 44.2024 142.506 44.2028C140.659 44.2028 139.193 43.5783 138.107 42.3295C137.021 41.0806 136.478 39.4045 136.478 37.301C136.478 35.0453 137.051 33.2494 138.195 31.9131C139.339 30.5769 140.877 29.9086 142.807 29.9082C144.536 29.9064 145.998 30.4818 147.193 31.6345ZM145.782 40.5615C146.334 39.4297 146.61 38.1708 146.61 36.7848C146.61 35.5319 146.411 34.5131 146.012 33.7283C145.379 32.4926 144.29 31.8746 142.742 31.8742C141.369 31.8742 140.371 32.4004 139.747 33.4529C139.123 34.5054 138.812 35.7747 138.812 37.2609C138.812 38.6871 139.123 39.8771 139.747 40.8309C140.371 41.7846 141.361 42.26 142.717 42.2571C144.207 42.2582 145.229 41.693 145.782 40.5615Z" fill="white"/>
<path d="M151.627 30.2953H153.785V32.6151C153.962 32.1638 154.395 31.6142 155.084 30.9662C155.774 30.3181 156.569 29.9941 157.47 29.9941C157.512 29.9941 157.58 29.9985 157.684 30.0068C157.788 30.015 157.96 30.0314 158.202 30.0567V32.4396C158.079 32.4159 157.954 32.3993 157.829 32.3896C157.719 32.3814 157.591 32.377 157.457 32.377C156.313 32.377 155.433 32.7427 154.819 33.4741C154.215 34.1784 153.888 35.076 153.898 36.0013V43.727H151.627V30.2953Z" fill="white"/>
<path d="M168.204 30.664C169.099 31.1116 169.779 31.6907 170.246 32.4012C170.697 33.0781 170.998 33.8682 171.149 34.7715C171.282 35.3903 171.349 36.3776 171.35 37.7336H161.521C161.563 39.1006 161.884 40.1977 162.485 41.0249C163.086 41.8521 164.017 42.265 165.278 42.2635C166.455 42.2635 167.393 41.873 168.093 41.0918C168.486 40.636 168.771 40.0976 168.927 39.517H171.16C171.102 40.0107 170.906 40.5603 170.574 41.1659C170.241 41.7715 169.871 42.267 169.462 42.6525C168.776 43.321 167.929 43.7724 166.919 44.0068C166.316 44.1474 165.697 44.2148 165.078 44.2076C163.406 44.2076 161.989 43.5993 160.828 42.3826C159.666 41.1659 159.085 39.4623 159.084 37.2718C159.084 35.1142 159.67 33.3626 160.84 32.0172C162.011 30.6718 163.541 29.9988 165.43 29.998C166.395 29.9991 167.345 30.2273 168.204 30.664ZM169.017 35.9377C168.926 34.9598 168.713 34.1782 168.379 33.5927C167.762 32.5055 166.731 31.9618 165.288 31.9618C164.254 31.9618 163.386 32.3361 162.685 33.0847C161.984 33.8333 161.613 34.7841 161.572 35.9372L169.017 35.9377Z" fill="white"/>
<path d="M58.6321 9.25195H62.5174C63.8363 9.25195 64.8592 9.72334 65.5864 10.6661C66.2351 11.5164 66.5593 12.6056 66.5589 13.9338C66.5589 14.9603 66.3674 15.8875 65.9843 16.7155C65.3098 18.1783 64.1507 18.9097 62.5069 18.9097H58.6348L58.6321 9.25195ZM62.2591 17.7939C62.6944 17.7939 63.0525 17.748 63.3332 17.6562C63.8333 17.4851 64.2431 17.156 64.5625 16.6688C64.8167 16.2786 65.0007 15.7789 65.1144 15.1697C65.1763 14.8356 65.2088 14.4968 65.2116 14.1571C65.2116 12.9601 64.9775 12.0307 64.5095 11.3688C64.0414 10.7069 63.287 10.3759 62.2464 10.3759H59.9629V17.7939H62.2591Z" fill="white"/>
<path d="M73.4415 12.5728C74.0671 13.1773 74.3799 14.0663 74.3799 15.2398C74.3799 16.3735 74.1039 17.3109 73.5519 18.0522C72.9999 18.7935 72.1438 19.1635 70.9836 19.1625C70.0154 19.1625 69.2467 18.835 68.6774 18.18C68.1082 17.525 67.8234 16.6457 67.823 15.542C67.823 14.3594 68.1231 13.4177 68.7233 12.717C69.3234 12.0164 70.1295 11.666 71.1415 11.666C72.0482 11.666 72.8149 11.9683 73.4415 12.5728ZM72.7019 17.253C72.9976 16.6347 73.1465 15.9572 73.1368 15.2727C73.1368 14.6145 73.0321 14.0804 72.8228 13.6704C72.4916 13.0224 71.9212 12.6984 71.1116 12.6984C70.3919 12.6984 69.8684 12.9743 69.5413 13.5261C69.2142 14.078 69.0497 14.7441 69.0478 15.5245C69.0478 16.2734 69.2114 16.8975 69.5385 17.3967C69.8657 17.8959 70.3841 18.1447 71.094 18.1432C71.8763 18.1432 72.4123 17.8465 72.7019 17.253Z" fill="white"/>
<path d="M77.3551 11.8691L78.7179 17.4193L80.1011 11.8691H81.4375L82.8273 17.3892L84.2763 11.8719H85.4674L83.4097 18.9147H82.1721L80.7298 13.4632L79.3333 18.9147H78.0964L76.0541 11.8719L77.3551 11.8691Z" fill="white"/>
<path d="M87.3347 11.8686H88.4663V12.8681C88.8015 12.4563 89.1566 12.1605 89.5316 11.9805C89.9225 11.7975 90.3502 11.7054 90.7823 11.7112C91.788 11.7112 92.4673 12.0597 92.8202 12.7567C93.0141 13.1378 93.1111 13.6836 93.1111 14.3941V18.9114H91.9034V14.4726C91.9034 14.0432 91.8394 13.6969 91.7113 13.4336C91.4993 12.9948 91.1155 12.7754 90.5599 12.7754C90.3253 12.7693 90.0911 12.798 89.865 12.8604C89.5261 12.9642 89.2258 13.1656 89.0022 13.4391C88.8179 13.6454 88.6855 13.8923 88.6158 14.1594C88.5562 14.4073 88.5264 14.7613 88.5264 15.2213V18.9103H87.3353L87.3347 11.8686Z" fill="white"/>
<path d="M95.7567 9.25195H96.9478V18.9119H95.7567V9.25195Z" fill="white"/>
<path d="M104.615 12.5728C105.241 13.1773 105.554 14.0663 105.554 15.2398C105.554 16.3735 105.278 17.3109 104.726 18.0522C104.174 18.7935 103.317 19.1635 102.157 19.1625C101.189 19.1625 100.42 18.835 99.8507 18.18C99.2814 17.525 98.9966 16.6457 98.9962 15.542C98.9962 14.3594 99.2963 13.4177 99.8965 12.717C100.497 12.0164 101.303 11.666 102.315 11.666C103.222 11.666 103.989 11.9683 104.615 12.5728ZM103.876 17.253C104.171 16.6347 104.32 15.9572 104.311 15.2727C104.311 14.6145 104.206 14.0804 103.997 13.6704C103.665 13.0224 103.095 12.6984 102.285 12.6984C101.566 12.6984 101.042 12.9743 100.715 13.5261C100.388 14.078 100.223 14.7441 100.222 15.5245C100.222 16.2734 100.385 16.8975 100.712 17.3967C101.039 17.8959 101.558 18.1454 102.269 18.1454C103.05 18.144 103.585 17.8465 103.876 17.253Z" fill="white"/>
<path d="M111.242 14.649C111.515 14.6146 111.699 14.5009 111.794 14.3078C111.853 14.1637 111.88 14.0082 111.873 13.8525C111.873 13.4477 111.729 13.1538 111.44 12.971C111.152 12.7881 110.74 12.6967 110.202 12.6967C109.582 12.6967 109.141 12.864 108.881 13.1986C108.736 13.384 108.642 13.6594 108.597 14.0247H107.486C107.508 13.154 107.791 12.5484 108.335 12.208C108.879 11.8675 109.51 11.6973 110.228 11.6973C111.061 11.6973 111.737 11.8551 112.257 12.1707C112.777 12.4863 113.035 12.9772 113.03 13.6435V17.7028C113.025 17.8067 113.051 17.9097 113.106 17.9984C113.157 18.0716 113.264 18.1081 113.427 18.1081C113.48 18.1081 113.54 18.1048 113.606 18.0983C113.672 18.0917 113.743 18.0818 113.818 18.0686V18.943C113.679 18.9851 113.537 19.0181 113.394 19.0418C113.262 19.0568 113.13 19.0634 112.997 19.0615C112.587 19.0615 112.289 18.9169 112.104 18.6276C112.007 18.474 111.938 18.257 111.899 17.9765C111.656 18.2924 111.308 18.5667 110.853 18.7993C110.388 19.034 109.873 19.1535 109.351 19.1476C108.694 19.1476 108.157 18.9494 107.74 18.553C107.323 18.1566 107.115 17.6607 107.115 17.0653C107.115 16.4133 107.32 15.9077 107.73 15.5486C108.14 15.1895 108.679 14.9682 109.345 14.8849L111.242 14.649ZM108.734 17.8465C108.988 18.0445 109.304 18.149 109.627 18.1421C110.05 18.1412 110.467 18.0422 110.844 17.8531C111.507 17.5338 111.838 17.0107 111.838 16.2837V15.3319C111.664 15.4367 111.474 15.5146 111.276 15.5629C111.055 15.6228 110.83 15.6668 110.603 15.6945L109.886 15.7867C109.454 15.8437 109.129 15.9333 108.912 16.0555C108.544 16.2614 108.36 16.5894 108.36 17.0396C108.358 17.3819 108.482 17.6508 108.734 17.8465Z" fill="white"/>
<path d="M119.726 12.086C119.937 12.2177 120.176 12.4479 120.444 12.7766V9.21875H121.588V18.9116H120.516V17.9319C120.24 18.3659 119.913 18.6793 119.534 18.8721C119.131 19.0709 118.686 19.1703 118.236 19.1617C117.449 19.1617 116.769 18.8326 116.193 18.1743C115.618 17.5161 115.33 16.6384 115.33 15.5413C115.33 14.5173 115.593 13.6285 116.118 12.8748C116.643 12.1211 117.393 11.7454 118.369 11.7475C118.909 11.7454 119.361 11.8582 119.726 12.086ZM117.067 17.3663C117.388 17.875 117.901 18.1293 118.608 18.1293C119.156 18.1293 119.607 17.8936 119.961 17.4223C120.314 16.9509 120.49 16.2743 120.49 15.3926C120.49 14.5022 120.308 13.8439 119.944 13.4179C119.58 12.9918 119.13 12.7783 118.594 12.7772C117.998 12.7772 117.514 13.005 117.143 13.4607C116.771 13.9163 116.586 14.5872 116.587 15.4733C116.587 16.2266 116.747 16.8576 117.067 17.3663Z" fill="white"/>
<path d="M133.506 12.5728C134.132 13.1773 134.444 14.0663 134.444 15.2398C134.444 16.3735 134.168 17.3109 133.616 18.0522C133.064 18.7935 132.208 19.1635 131.047 19.1625C130.079 19.1625 129.31 18.835 128.741 18.18C128.171 17.525 127.887 16.6457 127.887 15.542C127.887 14.3594 128.187 13.4177 128.787 12.717C129.387 12.0164 130.193 11.666 131.205 11.666C132.113 11.666 132.88 11.9683 133.506 12.5728ZM132.767 17.253C133.062 16.6346 133.211 15.9572 133.202 15.2727C133.202 14.6145 133.097 14.0804 132.888 13.6704C132.557 13.0224 131.985 12.6984 131.173 12.6984C130.454 12.6984 129.93 12.9743 129.604 13.5261C129.277 14.078 129.113 14.7441 129.113 15.5245C129.113 16.2734 129.276 16.8975 129.604 17.3967C129.931 17.8959 130.45 18.1454 131.161 18.1454C131.941 18.144 132.477 17.8465 132.767 17.253Z" fill="white"/>
<path d="M136.547 11.8686H137.679V12.8681C138.014 12.4563 138.369 12.1604 138.744 11.9805C139.135 11.7976 139.563 11.7055 139.995 11.7112C141.001 11.7112 141.68 12.0597 142.033 12.7567C142.227 13.1378 142.324 13.6836 142.324 14.3941V18.9114H141.113V14.4726C141.113 14.0432 141.049 13.6969 140.921 13.4336C140.71 12.9948 140.326 12.7754 139.77 12.7754C139.535 12.7693 139.301 12.7979 139.075 12.8604C138.737 12.9644 138.437 13.1658 138.214 13.4391C138.03 13.6456 137.897 13.8924 137.827 14.1594C137.768 14.4073 137.738 14.7613 137.738 15.2213V18.9103H136.547L136.547 11.8686Z" fill="white"/>
<path d="M149.538 9.90234H150.744V11.8683H151.875V12.8354H150.744V17.4317C150.744 17.6774 150.827 17.842 150.995 17.9254C151.087 17.9737 151.242 17.9978 151.458 17.9978C151.513 17.9978 151.577 17.9978 151.643 17.9934C151.71 17.989 151.787 17.983 151.875 17.9715V18.9117C151.735 18.9518 151.592 18.9804 151.448 18.9972C151.289 19.0155 151.129 19.0242 150.968 19.0236C150.412 19.0236 150.035 18.8822 149.837 18.5995C149.638 18.3169 149.539 17.9497 149.538 17.4981V12.8354H148.579V11.8683H149.538V9.90234Z" fill="white"/>
<path d="M154.237 9.21875H155.428V12.8227C155.71 12.4672 155.963 12.2173 156.189 12.0728C156.573 11.8227 157.051 11.6978 157.624 11.6982C158.652 11.6982 159.349 12.0555 159.715 12.77C159.913 13.1599 160.013 13.7013 160.012 14.3943V18.9116H158.788V14.4727C158.788 13.956 158.722 13.577 158.59 13.3356C158.373 12.9494 157.968 12.7565 157.372 12.7569C156.877 12.757 156.4 12.9371 156.029 13.2632C155.627 13.6004 155.427 14.2381 155.427 15.1765V18.9116H154.236L154.237 9.21875Z" fill="white"/>
<path d="M166.791 12.0637C167.259 12.2984 167.617 12.602 167.862 12.9742C168.107 13.3506 168.269 13.7743 168.336 14.2172C168.406 14.5413 168.441 15.0585 168.441 15.7691H163.287C163.308 16.4855 163.477 17.0604 163.792 17.4937C164.108 17.9271 164.596 18.1436 165.256 18.1432C165.873 18.1432 166.366 17.9384 166.733 17.5288C166.94 17.2896 167.089 17.0072 167.171 16.7027H168.342C168.311 16.9616 168.208 17.25 168.034 17.5678C167.882 17.8561 167.685 18.1189 167.451 18.3467C167.082 18.7028 166.62 18.9489 166.118 19.0571C165.801 19.1309 165.477 19.1662 165.152 19.1624C164.276 19.1624 163.533 18.8433 162.923 18.2052C162.314 17.567 162.009 16.6735 162.009 15.5244C162.009 14.3941 162.316 13.4758 162.93 12.7696C163.544 12.0635 164.346 11.7106 165.337 11.7109C165.843 11.7128 166.341 11.8337 166.791 12.0637ZM167.217 14.8289C167.169 14.3169 167.057 13.907 166.882 13.599C166.559 13.0289 166.019 12.744 165.262 12.7444C165.005 12.7393 164.75 12.7893 164.515 12.8909C164.279 12.9924 164.069 13.1432 163.897 13.333C163.529 13.725 163.334 14.2236 163.313 14.8289H167.217Z" fill="white"/>
<path d="M29.0889 17.6546C29.0889 17.6546 28.5977 14.3568 31.2041 11.5751C32.3765 10.3233 34.2256 9.03972 36.8977 8.72266C36.8977 8.72266 37.3945 12.0106 34.9211 14.9459C33.7487 16.3337 31.2113 17.8335 29.0889 17.6546Z" fill="white"/>
<path d="M39.8275 29.2483C39.8268 27.7644 40.2188 26.3064 40.9641 25.0206C41.7094 23.7348 42.7818 22.6664 44.0738 21.9224C42.3075 19.5176 39.6001 18.0195 36.3799 18.0195C33.0294 18.0195 31.1836 19.7985 29.3582 19.7985C28.0517 19.7985 25.4271 18.1792 23.0105 18.1792C18.2084 18.1792 13.3461 22.1073 13.3461 29.6926C13.3461 38.4326 19.5171 47.3991 23.3958 47.3991C25.9349 47.3991 27.0571 45.7809 29.9505 45.7809C32.7192 45.7809 33.8695 47.3679 36.2766 47.3679C39.5885 47.3679 43.1349 42.7529 44.9945 37.0338C43.461 36.3811 42.1539 35.2955 41.2355 33.9115C40.317 32.5276 39.8274 30.9061 39.8275 29.2483Z" fill="white"/>
</svg>
