<svg width="85" height="26" viewBox="0 0 85 26" fill="none" xmlns="http://www.w3.org/2000/svg">
<path fill-rule="evenodd" clip-rule="evenodd" d="M9.38799 0C9.38799 0 9.34382 2.31356 12.2375 5.70678C14.7999 8.72542 18.776 12.7576 18.776 16.5695C18.776 21.7695 14.579 26 9.38799 26C4.19699 26 0 21.7695 0 16.5695C0 8.50508 9.38799 0 9.38799 0ZM8.39397 5.50847C8.39397 5.50847 9.21128 6.72034 11.0447 8.81356C13.0327 11.061 15.9044 13.9034 15.9044 16.8339C15.9044 20.3153 12.9886 23.2017 9.49844 23.1356C5.10265 23.0475 2.36357 20.8 2.36357 15.8203C2.36357 9.38644 8.39397 5.50847 8.39397 5.50847Z" fill="url(#grey_radial)"/>
<path fill-rule="evenodd" clip-rule="evenodd" d="M9.49844 23.1356C5.10265 23.0475 3.09252 19.3017 3.09252 16.1729C3.09252 10.9508 8.34979 5.55254 8.39397 5.50847C8.5486 5.35424 9.41008 4.16441 10.0728 4.01017C10.7575 3.8339 11.2656 4.49492 11.2656 4.49492C9.49844 1.89492 9.38799 0 9.38799 0C9.38799 0 0 8.50508 0 16.5695C0 21.7695 4.19699 26 9.38799 26L9.49844 23.1356Z" fill="#DAD7D7"/>
<path d="M38.8552 18.9492C38.6564 19.0373 38.4576 19.1255 38.2367 19.1916C38.0158 19.2577 37.7728 19.3238 37.5299 19.3899C37.2869 19.4339 36.9997 19.478 36.7125 19.5221C36.4254 19.5441 36.094 19.5661 35.7627 19.5661C35.3209 19.5661 34.9012 19.5221 34.5257 19.4339C34.1502 19.3458 33.8188 19.2356 33.5317 19.0814C33.2445 18.9272 32.9794 18.7509 32.7585 18.5305C32.5377 18.3102 32.3609 18.0678 32.2063 17.8034C32.0517 17.539 31.9412 17.2305 31.875 16.9221C31.8087 16.6136 31.7645 16.2611 31.7645 15.9085C31.7645 15.578 31.8087 15.2695 31.875 14.9831C31.9412 14.6966 32.0517 14.4102 32.2063 14.1458C32.3609 13.8814 32.5377 13.6611 32.7585 13.4407C32.9794 13.2424 33.2224 13.0441 33.5096 12.9119C33.7967 12.7797 34.106 12.6475 34.4373 12.5594C34.7908 12.4712 35.1442 12.4272 35.5639 12.4272C35.9615 12.4272 36.337 12.4712 36.6684 12.5373C36.9997 12.6034 37.309 12.7136 37.5961 12.8678C37.8833 13 38.1263 13.1763 38.3472 13.3746C38.5681 13.5729 38.7448 13.7933 38.8773 14.0356C39.0319 14.278 39.1424 14.5424 39.2087 14.8289C39.2749 15.1153 39.3191 15.4238 39.3191 15.7322C39.3191 15.7763 39.3191 15.8204 39.3191 15.8644C39.3191 15.9085 39.3191 15.9526 39.3191 15.9966C39.3191 16.0407 39.3191 16.0848 39.3191 16.1288C39.3191 16.1729 39.3191 16.195 39.3191 16.239H33.112C33.1341 16.5695 33.2003 16.878 33.3329 17.1644C33.4654 17.4289 33.6421 17.6712 33.863 17.8695C34.0839 18.0678 34.3932 18.2221 34.7245 18.3102C35.0558 18.4204 35.4755 18.4644 35.9173 18.4644C36.2487 18.4644 36.5358 18.4424 36.823 18.4204C37.0881 18.3763 37.3531 18.3322 37.5961 18.2882C37.8391 18.2221 38.06 18.178 38.2588 18.0899C38.4576 18.0238 38.6785 17.9356 38.8773 17.8695V18.9492H38.8552ZM38.0158 15.2916C37.9937 15.0272 37.9054 14.7848 37.7728 14.5644C37.6403 14.3441 37.4636 14.1458 37.2427 13.9916C37.0218 13.8373 36.7788 13.7051 36.4917 13.617C36.2045 13.5288 35.8952 13.4848 35.5639 13.4848C35.2326 13.4848 34.9233 13.5288 34.6361 13.617C34.349 13.7051 34.0839 13.8373 33.8851 13.9916C33.6642 14.1458 33.4875 14.3441 33.355 14.5644C33.2224 14.7848 33.1341 15.0272 33.112 15.2916H38.0158Z" fill="black"/>
<path d="M48.9501 22.2102V13.9255L50.1429 13.2204C50.2975 13.1102 50.4963 13 50.6951 12.9119C50.8939 12.8238 51.1148 12.7356 51.3578 12.6695C51.6008 12.6034 51.8438 12.5594 52.0868 12.5153C52.3518 12.4712 52.5948 12.4492 52.8599 12.4492C53.4563 12.4492 54.0085 12.5373 54.4945 12.6916C54.9805 12.8458 55.4002 13.0882 55.7315 13.3746C56.0629 13.6831 56.3279 14.0577 56.5267 14.4983C56.7034 14.939 56.8139 15.4458 56.8139 15.9966C56.8139 16.5475 56.7255 17.0543 56.5488 17.495C56.3721 17.9356 56.107 18.3102 55.7536 18.6187C55.4002 18.9272 54.9805 19.1695 54.4945 19.3238C54.0085 19.478 53.4342 19.5661 52.7936 19.5661C52.5506 19.5661 52.3077 19.5441 52.0647 19.5221C51.8217 19.5 51.6008 19.456 51.3799 19.4119C51.159 19.3678 50.9602 19.3017 50.7614 19.2136C50.5626 19.1255 50.408 19.0373 50.2313 18.9492V22.2102H48.9501ZM50.2754 17.8916C50.4301 18.0017 50.6068 18.0899 50.7835 18.178C50.9602 18.2661 51.159 18.3322 51.3578 18.3763C51.5566 18.4424 51.7554 18.4865 51.9763 18.5085C52.1972 18.5305 52.4181 18.5526 52.639 18.5526C53.1029 18.5526 53.5005 18.5085 53.8539 18.3983C54.2073 18.2882 54.5166 18.1339 54.7375 17.9136C54.9584 17.6933 55.1572 17.4288 55.2897 17.1204C55.4223 16.8119 55.4664 16.4373 55.4664 16.0187C55.4664 15.6 55.4002 15.2255 55.2897 14.917C55.1572 14.6085 54.9805 14.3441 54.7375 14.1238C54.4945 13.9034 54.2073 13.7492 53.8539 13.639C53.5005 13.5288 53.0808 13.4848 52.639 13.4848C52.4181 13.4848 52.1972 13.5068 51.9763 13.5288C51.7554 13.5509 51.5566 13.595 51.3578 13.6611C51.159 13.7272 50.9823 13.7933 50.7835 13.8594C50.6068 13.9475 50.4301 14.1017 50.2754 14.2339V17.8916Z" fill="black"/>
<path d="M72.5195 19.0594C72.3648 19.1255 72.1881 19.1916 72.0114 19.2577C71.8347 19.3238 71.6359 19.3678 71.415 19.4119C71.1941 19.456 70.9511 19.5 70.686 19.5221C70.421 19.5441 70.1117 19.5661 69.7583 19.5661C69.1619 19.5661 68.6317 19.478 68.1458 19.3017C67.6598 19.1255 67.2622 18.8831 66.9529 18.5746C66.6216 18.2661 66.3786 17.8916 66.2019 17.4509C66.0252 17.0102 65.9368 16.5255 65.9368 15.9966C65.9368 15.6661 65.981 15.3356 66.0473 15.0272C66.1135 14.7187 66.224 14.4322 66.3786 14.1678C66.5332 13.9034 66.71 13.6611 66.9308 13.4627C67.1517 13.2424 67.4168 13.0661 67.7261 12.9119C68.0353 12.7577 68.3667 12.6475 68.7422 12.5594C69.1177 12.4712 69.5374 12.4272 70.0013 12.4272C70.2222 12.4272 70.4651 12.4272 70.686 12.4492C70.9069 12.4712 71.1278 12.4933 71.3487 12.5373C71.5696 12.5814 71.7463 12.6255 71.9451 12.6695C72.1439 12.7136 72.2986 12.7797 72.4311 12.8458V13.9255C72.2765 13.8594 72.1219 13.8153 71.923 13.7492C71.7463 13.7051 71.5475 13.6611 71.3266 13.617C71.1278 13.5729 70.9069 13.5509 70.6639 13.5288C70.4431 13.5068 70.2001 13.4848 69.9571 13.4848C69.4932 13.4848 69.0735 13.5509 68.7422 13.6611C68.4108 13.7712 68.1237 13.9475 67.9028 14.1678C67.6819 14.3882 67.5273 14.6526 67.4168 14.9611C67.3064 15.2695 67.2622 15.6 67.2622 15.9746C67.2622 16.3712 67.3285 16.7458 67.4389 17.0543C67.5714 17.3627 67.7261 17.6272 67.9691 17.8475C68.1899 18.0678 68.4771 18.2221 68.7864 18.3322C69.0956 18.4424 69.4711 18.4865 69.8687 18.4865C70.178 18.4865 70.4431 18.4644 70.7081 18.4424C70.9732 18.3983 71.1941 18.3763 71.415 18.3102C71.6359 18.2661 71.8347 18.2 72.0114 18.1339C72.1881 18.0678 72.3427 18.0017 72.4974 17.9356V19.0594H72.5195Z" fill="black"/>
<path d="M84.006 19.6983C84.555 19.6983 85 19.2544 85 18.7068C85 18.1592 84.555 17.7153 84.006 17.7153C83.457 17.7153 83.012 18.1592 83.012 18.7068C83.012 19.2544 83.457 19.6983 84.006 19.6983Z" fill="#DAD7D7"/>
<defs>
<radialGradient id="color_radial" cx="0" cy="0" r="1" gradientUnits="userSpaceOnUse" gradientTransform="translate(15.0761 20.4926) rotate(-23.8562) scale(16.8148 16.7075)">
<stop offset="0.6205" stop-color="#EC001D"/>
<stop offset="1" stop-color="#940000"/>
</radialGradient>
<radialGradient id="grey_radial" cx="0" cy="0" r="1" gradientUnits="userSpaceOnUse" gradientTransform="translate(15.0761 20.4926) rotate(-23.8562) scale(16.8148 16.7075)">
<stop offset="0.6205" stop-color="#DAD7D7"/>
<stop offset="1" stop-color="#F0EFEF"/>
</radialGradient>
</defs>
</svg>