<svg width="400" height="123" viewBox="0 0 400 123" fill="none" xmlns="http://www.w3.org/2000/svg">
<path fill-rule="evenodd" clip-rule="evenodd" d="M44.1788 0C44.1788 0 43.9709 10.9449 57.5884 26.9975C69.6466 41.278 88.3576 60.3534 88.3576 78.3864C88.3576 102.986 68.6071 123 44.1788 123C19.7505 123 0 102.986 0 78.3864C0 40.2356 44.1788 0 44.1788 0ZM39.501 26.0593C39.501 26.0593 43.3472 31.7924 51.9751 41.6949C61.3306 52.3271 74.8441 65.7737 74.8441 79.6373C74.8441 96.1068 61.1227 109.762 44.6985 109.449C24.0125 109.032 11.1227 98.4 11.1227 74.8424C11.1227 44.4051 39.501 26.0593 39.501 26.0593Z" fill="url(#paint0_radial)"/>
<path fill-rule="evenodd" clip-rule="evenodd" d="M44.6985 109.449C24.0125 109.032 14.553 91.3119 14.553 76.5102C14.553 51.8059 39.2931 26.2678 39.501 26.0593C40.2287 25.3297 44.2827 19.7008 47.4012 18.9712C50.6237 18.1373 53.0146 21.2644 53.0146 21.2644C44.6985 8.96441 44.1788 0 44.1788 0C44.1788 0 0 40.2356 0 78.3864C0 102.986 19.7505 123 44.1788 123L44.6985 109.449Z" fill="#EC001D"/>
<path d="M182.848 89.6441C181.913 90.061 180.977 90.478 179.938 90.7907C178.898 91.1034 177.755 91.4161 176.611 91.7288C175.468 91.9373 174.116 92.1458 172.765 92.3542C171.414 92.4585 169.854 92.5627 168.295 92.5627C166.216 92.5627 164.241 92.3542 162.474 91.9373C160.707 91.5203 159.148 90.9991 157.796 90.2695C156.445 89.5398 155.198 88.7059 154.158 87.6636C153.119 86.6212 152.287 85.4746 151.559 84.2237C150.832 82.9729 150.312 81.5136 150 80.0542C149.688 78.5949 149.48 76.9271 149.48 75.2593C149.48 73.6958 149.688 72.2364 150 70.8814C150.312 69.5263 150.832 68.1712 151.559 66.9203C152.287 65.6695 153.119 64.6271 154.158 63.5847C155.198 62.6466 156.341 61.7085 157.692 61.083C159.044 60.4576 160.499 59.8322 162.058 59.4153C163.721 58.9983 165.385 58.7898 167.36 58.7898C169.231 58.7898 170.998 58.9983 172.557 59.311C174.116 59.6237 175.572 60.1449 176.923 60.8746C178.274 61.5 179.418 62.3339 180.457 63.272C181.497 64.2102 182.328 65.2525 182.952 66.3992C183.68 67.5458 184.2 68.7966 184.511 70.1517C184.823 71.5068 185.031 72.9661 185.031 74.4254C185.031 74.6339 185.031 74.8424 185.031 75.0508C185.031 75.2593 185.031 75.4678 185.031 75.6763C185.031 75.8847 185.031 76.0932 185.031 76.3017C185.031 76.5102 185.031 76.6144 185.031 76.8229H155.821C155.925 78.3864 156.237 79.8458 156.861 81.2008C157.484 82.4517 158.316 83.5983 159.356 84.5364C160.395 85.4746 161.85 86.2042 163.41 86.6212C164.969 87.1424 166.944 87.3508 169.023 87.3508C170.582 87.3508 171.933 87.2466 173.285 87.1424C174.532 86.9339 175.78 86.7254 176.923 86.5169C178.067 86.2042 179.106 85.9958 180.042 85.5788C180.977 85.2661 182.017 84.8491 182.952 84.5364V89.6441H182.848ZM178.898 72.3407C178.794 71.0898 178.378 69.9432 177.755 68.9008C177.131 67.8585 176.299 66.9203 175.26 66.1907C174.22 65.461 173.077 64.8356 171.726 64.4186C170.374 64.0017 168.919 63.7932 167.36 63.7932C165.8 63.7932 164.345 64.0017 162.994 64.4186C161.642 64.8356 160.395 65.461 159.459 66.1907C158.42 66.9203 157.588 67.8585 156.965 68.9008C156.341 69.9432 155.925 71.0898 155.821 72.3407H178.898Z" fill="black"/>
<path d="M230.353 105.071V65.878L235.967 62.5424C236.694 62.0212 237.63 61.5 238.566 61.083C239.501 60.6661 240.541 60.2492 241.684 59.9364C242.827 59.6237 243.971 59.4153 245.114 59.2068C246.362 58.9983 247.505 58.8941 248.753 58.8941C251.559 58.8941 254.158 59.311 256.445 60.0407C258.732 60.7703 260.707 61.9169 262.266 63.272C263.825 64.7314 265.073 66.5034 266.008 68.5881C266.84 70.6729 267.36 73.0703 267.36 75.6763C267.36 78.2822 266.944 80.6797 266.112 82.7644C265.281 84.8492 264.033 86.6212 262.37 88.0805C260.707 89.5398 258.732 90.6864 256.445 91.4161C254.158 92.1458 251.455 92.5627 248.441 92.5627C247.297 92.5627 246.154 92.4585 245.01 92.3542C243.867 92.25 242.827 92.0415 241.788 91.833C240.748 91.6246 239.813 91.3119 238.877 90.8949C237.942 90.478 237.214 90.061 236.383 89.6441V105.071H230.353ZM236.59 84.6407C237.318 85.1619 238.15 85.5788 238.981 85.9958C239.813 86.4127 240.748 86.7254 241.684 86.9339C242.62 87.2466 243.555 87.4551 244.595 87.5593C245.634 87.6636 246.674 87.7678 247.713 87.7678C249.896 87.7678 251.767 87.5593 253.43 87.0381C255.094 86.5169 256.549 85.7873 257.588 84.7449C258.628 83.7025 259.563 82.4517 260.187 80.9924C260.811 79.533 261.019 77.761 261.019 75.7805C261.019 73.8 260.707 72.028 260.187 70.5686C259.563 69.1093 258.732 67.8585 257.588 66.8161C256.445 65.7737 255.094 65.0441 253.43 64.5229C251.767 64.0017 249.792 63.7932 247.713 63.7932C246.674 63.7932 245.634 63.8975 244.595 64.0017C243.555 64.1059 242.62 64.3144 241.684 64.6271C240.748 64.9398 239.917 65.2525 238.981 65.5653C238.15 65.9822 237.318 66.7119 236.59 67.3373V84.6407Z" fill="black"/>
<path d="M341.268 90.1653C340.541 90.478 339.709 90.7907 338.877 91.1034C338.046 91.4161 337.11 91.6246 336.071 91.833C335.031 92.0415 333.888 92.25 332.64 92.3542C331.393 92.4585 329.938 92.5627 328.274 92.5627C325.468 92.5627 322.973 92.1458 320.686 91.3119C318.399 90.478 316.528 89.3314 315.073 87.872C313.514 86.4127 312.37 84.6407 311.538 82.5559C310.707 80.4712 310.291 78.178 310.291 75.6763C310.291 74.1127 310.499 72.5491 310.811 71.0898C311.123 69.6305 311.642 68.2754 312.37 67.0246C313.098 65.7737 313.929 64.6271 314.969 63.689C316.008 62.6466 317.256 61.8127 318.711 61.083C320.166 60.3534 321.726 59.8322 323.493 59.4153C325.26 58.9983 327.235 58.7898 329.418 58.7898C330.457 58.7898 331.601 58.7898 332.64 58.8941C333.68 58.9983 334.719 59.1025 335.759 59.311C336.798 59.5195 337.63 59.728 338.565 59.9364C339.501 60.1449 340.229 60.4576 340.852 60.7703V65.878C340.125 65.5653 339.397 65.3568 338.462 65.0441C337.63 64.8356 336.694 64.6271 335.655 64.4186C334.719 64.2102 333.68 64.1059 332.536 64.0017C331.497 63.8975 330.353 63.7932 329.21 63.7932C327.027 63.7932 325.052 64.1059 323.493 64.6271C321.933 65.1483 320.582 65.9822 319.543 67.0246C318.503 68.0669 317.775 69.3178 317.256 70.7771C316.736 72.2364 316.528 73.8 316.528 75.572C316.528 77.4483 316.84 79.2203 317.36 80.6797C317.983 82.139 318.711 83.3898 319.854 84.4322C320.894 85.4746 322.245 86.2042 323.701 86.7254C325.156 87.2466 326.923 87.4551 328.794 87.4551C330.249 87.4551 331.497 87.3508 332.744 87.2466C333.992 87.0381 335.031 86.9339 336.071 86.6212C337.11 86.4127 338.046 86.1 338.877 85.7873C339.709 85.4746 340.437 85.1619 341.164 84.8492V90.1653H341.268Z" fill="black"/>
<path d="M395.322 93.1881C397.906 93.1881 400 91.088 400 88.4975C400 85.9069 397.906 83.8068 395.322 83.8068C392.739 83.8068 390.644 85.9069 390.644 88.4975C390.644 91.088 392.739 93.1881 395.322 93.1881Z" fill="#EC001D"/>
<defs>
<radialGradient id="paint0_radial" cx="0" cy="0" r="1" gradientUnits="userSpaceOnUse" gradientTransform="translate(70.9461 96.9457) rotate(-23.9682) scale(79.1972 78.9709)">
<stop offset="0.6205" stop-color="#EC001D"/>
<stop offset="1" stop-color="#940000"/>
</radialGradient>
</defs>
</svg>
