<svg width="140" height="26" viewBox="0 0 140 26" fill="none" xmlns="http://www.w3.org/2000/svg">
<path opacity="0.5" fill-rule="evenodd" clip-rule="evenodd" d="M16.25 6.41003C15.6868 6.14699 16.0989 5.51014 13.544 5.81472C6.511 6.64539 3.62638 7.46222 3.62638 7.46222C3.62638 7.46222 3.42034 7.83602 1.34616 9.64965C-0.728014 11.4633 0.94781 12.0724 0.94781 12.0724C1.74451 12.294 13.0769 9.08202 13.0769 9.08202L16.25 6.41003ZM4.46429 16.295C4.46429 16.295 2.06045 20.0053 2.52748 20.4207C2.99451 20.836 6.45605 20.4345 11.7033 20.1992C16.9506 19.9638 15.3434 18.7317 15.3434 18.7317C15.3434 18.7317 16.6621 17.361 17.6099 16.2673C18.5577 15.1736 18.5577 14.6475 18.5577 14.6475C16.8819 14.5645 4.46429 16.295 4.46429 16.295ZM10.6044 23.1342C10.6044 23.1342 9.25825 23.1342 9.25825 24.0479C9.25825 24.5187 9.3544 25.0032 9.56045 25.4324C13.6951 26.7476 16.4148 25.377 16.4148 25.377L17.5962 24.0479C13.5852 24.5187 10.6044 23.1342 10.6044 23.1342Z" fill="#F0EFEF"/>
<path fill-rule="evenodd" clip-rule="evenodd" d="M4.23065 3.50266C0.398231 6.85304 0.0136155 10.8541 0.0136155 10.8541C0.0136155 10.8541 -0.123747 11.574 0.384495 11.9201C0.631747 12.0724 0.906473 12.1278 1.19493 12.0863C1.19493 12.0863 0.563066 12.0863 0.563066 11.5325C0.563066 11.0618 1.63449 9.82961 2.65098 8.66667C4.4779 6.57615 7.69219 3.84878 12.2114 0.415337C12.2114 0.415337 8.03559 0.17998 4.23065 3.50266Z" fill="#DAD7D7"/>
<path d="M73.3242 14.8136C73.8931 14.8136 74.3544 14.3488 74.3544 13.7753C74.3544 13.2018 73.8931 12.737 73.3242 12.737C72.7552 12.737 72.2939 13.2018 72.2939 13.7753C72.2939 14.3488 72.7552 14.8136 73.3242 14.8136Z" fill="#DAD7D7"/>
<path d="M88.3103 15.0767C88.1317 15.1597 87.9394 15.2428 87.7334 15.312C87.5136 15.3951 87.2938 15.4505 87.074 15.5058C86.8268 15.5612 86.5658 15.6028 86.3048 15.6304C86.0026 15.6581 85.7141 15.672 85.4119 15.672C85.0273 15.672 84.6427 15.6304 84.2581 15.5612C83.9284 15.492 83.6125 15.3812 83.324 15.229C83.063 15.0905 82.8158 14.9105 82.596 14.7029C82.3899 14.4952 82.2114 14.2598 82.074 14.0106C81.9367 13.7476 81.8268 13.4707 81.7581 13.18C81.6894 12.8615 81.6482 12.5431 81.6482 12.2247C81.6482 11.9201 81.6757 11.6294 81.7581 11.3386C81.8268 11.0618 81.9367 10.7987 82.074 10.5495C82.2114 10.3003 82.39 10.0788 82.5823 9.88497C82.7883 9.6773 83.0218 9.51117 83.2828 9.37272C83.5575 9.22043 83.8597 9.12352 84.1619 9.0543C84.5053 8.97123 84.8625 8.94354 85.2196 8.94354C85.563 8.94354 85.9202 8.97123 86.2498 9.0543C86.552 9.12352 86.8405 9.22043 87.1152 9.35888C87.3625 9.48348 87.596 9.64961 87.8158 9.82959C88.0081 10.0096 88.1867 10.2311 88.324 10.4526C88.4614 10.688 88.5713 10.951 88.64 11.214C88.7086 11.4909 88.7498 11.7817 88.7498 12.0724C88.7498 12.1139 88.7498 12.1555 88.7498 12.197C88.7498 12.2385 88.7498 12.2939 88.7498 12.3354C88.7498 12.377 88.7499 12.4185 88.7361 12.46C88.7224 12.5016 88.7361 12.5293 88.7224 12.557H82.8845C82.8982 12.8477 82.9669 13.1384 83.0905 13.4153C83.2004 13.6784 83.379 13.8999 83.5987 14.0799C83.8323 14.2737 84.107 14.426 84.4092 14.509C84.7801 14.6198 85.1509 14.6613 85.5356 14.6613C85.824 14.6613 86.0988 14.6475 86.3872 14.6198C86.6345 14.5921 86.868 14.5506 87.1015 14.4952C87.3075 14.4398 87.5273 14.3844 87.7334 14.3152C87.9257 14.246 88.118 14.1768 88.3103 14.0937V15.0767ZM87.5411 11.6017C87.5136 11.3525 87.4312 11.1171 87.3075 10.9095C87.1839 10.7018 87.0053 10.508 86.813 10.3695C86.5933 10.2172 86.3597 10.0926 86.0987 10.0234C85.5218 9.85728 84.9174 9.85728 84.3405 10.0234C84.0795 10.0926 83.846 10.2172 83.6262 10.3695C83.4202 10.5218 83.2553 10.7018 83.1317 10.9095C83.0081 11.1171 82.9257 11.3525 82.8982 11.6017H87.5411Z" fill="black"/>
<path d="M95.3434 15.4782C95.2473 15.5059 95.1511 15.5335 95.055 15.5474C94.9588 15.5612 94.8352 15.5889 94.7116 15.6166C94.5879 15.6305 94.4506 15.6581 94.3132 15.6581C94.1759 15.6581 94.0248 15.672 93.8599 15.672C93.5852 15.672 93.3105 15.6443 93.0495 15.5612C92.8434 15.5059 92.6649 15.3951 92.5138 15.2428C92.3764 15.0905 92.2803 14.9244 92.2253 14.7167C92.1566 14.4814 92.1292 14.246 92.1292 13.9968V6.42386H93.3654V13.8584C93.3654 13.9691 93.3792 14.0799 93.3929 14.1906C93.4204 14.3845 93.5715 14.5367 93.75 14.5783C93.8737 14.6198 94.011 14.6337 94.1484 14.6198C94.3682 14.6198 94.6017 14.606 94.8215 14.5921C95 14.5783 95.1649 14.5506 95.3297 14.4952L95.3434 15.4782Z" fill="black"/>
<path d="M104.327 15.0767C104.148 15.1597 103.956 15.2428 103.75 15.312C103.53 15.3951 103.31 15.4505 103.091 15.492C102.843 15.5474 102.582 15.5889 102.321 15.6166C102.019 15.6443 101.731 15.6581 101.429 15.6581C101.044 15.6581 100.659 15.6166 100.275 15.5474C99.945 15.4782 99.6291 15.3674 99.3406 15.2151C99.0796 15.0767 98.8324 14.8967 98.6126 14.689C98.4066 14.4814 98.228 14.246 98.0906 13.9968C97.9533 13.7338 97.8434 13.4569 97.7747 13.1661C97.706 12.8477 97.6648 12.5293 97.6648 12.2109C97.6648 11.9063 97.6923 11.6156 97.7747 11.3248C97.8434 11.0479 97.9533 10.7849 98.0906 10.5357C98.228 10.2865 98.4066 10.065 98.5989 9.87115C98.8049 9.66348 99.0384 9.49734 99.2994 9.3589C99.5741 9.20661 99.8763 9.1097 100.179 9.04047C100.522 8.95741 100.879 8.92972 101.236 8.92972C101.58 8.92972 101.937 8.95741 102.266 9.04047C102.569 9.1097 102.857 9.20661 103.132 9.34505C103.379 9.46965 103.613 9.63579 103.832 9.81577C104.025 9.99575 104.203 10.2173 104.341 10.4388C104.478 10.6741 104.588 10.9372 104.657 11.2002C104.725 11.4771 104.766 11.7678 104.766 12.0586C104.766 12.1001 104.766 12.1416 104.766 12.1832C104.766 12.2247 104.766 12.2801 104.766 12.3216C104.766 12.3632 104.766 12.4047 104.753 12.4462C104.739 12.4878 104.753 12.5154 104.739 12.5431H98.9011C98.9148 12.8477 98.9835 13.1384 99.1071 13.4153C99.217 13.6784 99.3956 13.8999 99.6153 14.0799C99.8489 14.2737 100.124 14.426 100.426 14.5091C100.797 14.6198 101.168 14.6613 101.552 14.6613C101.841 14.6613 102.115 14.6475 102.404 14.6198C102.651 14.5921 102.885 14.5506 103.118 14.4952C103.324 14.4398 103.544 14.3845 103.75 14.3152C103.942 14.246 104.135 14.1768 104.327 14.0937V15.0767ZM103.558 11.6017C103.53 11.3525 103.448 11.1172 103.324 10.9095C103.201 10.7018 103.022 10.508 102.83 10.3695C102.61 10.2173 102.376 10.0927 102.115 10.0234C101.538 9.8573 100.934 9.8573 100.357 10.0234C100.096 10.0927 99.8626 10.2173 99.6428 10.3695C99.4368 10.5218 99.2719 10.7018 99.1483 10.9095C99.0247 11.1172 98.9423 11.3525 98.9148 11.6017H103.558Z" fill="black"/>
<path d="M113.819 15.1874C113.667 15.2567 113.503 15.312 113.338 15.3674C113.159 15.4366 112.967 15.4782 112.775 15.5197C112.541 15.5612 112.321 15.6028 112.088 15.6305C111.799 15.6582 111.511 15.672 111.222 15.672C110.714 15.6858 110.192 15.6028 109.711 15.4228C109.299 15.2705 108.915 15.049 108.585 14.7444C108.269 14.4398 108.036 14.0799 107.884 13.6784C107.72 13.2354 107.637 12.7646 107.637 12.2939C107.637 11.9894 107.665 11.6848 107.747 11.3802C107.816 11.1033 107.912 10.8264 108.063 10.5634C108.2 10.3142 108.379 10.0788 108.585 9.88499C108.805 9.67732 109.052 9.49734 109.327 9.37274C109.629 9.22045 109.959 9.1097 110.288 9.04047C110.673 8.95741 111.071 8.91587 111.47 8.92972C111.689 8.92972 111.895 8.94356 112.115 8.95741C112.335 8.97125 112.527 8.99894 112.733 9.04047C112.926 9.08201 113.118 9.12354 113.283 9.16507C113.434 9.20661 113.599 9.26199 113.736 9.33121V10.3419C113.599 10.2865 113.434 10.2311 113.269 10.1896C113.104 10.148 112.912 10.0927 112.72 10.0511C112.527 10.0096 112.321 9.9819 112.101 9.95421C111.882 9.92652 111.662 9.92652 111.442 9.92652C111.044 9.91268 110.659 9.9819 110.288 10.1065C110 10.2034 109.725 10.3695 109.505 10.5911C109.299 10.7987 109.148 11.0618 109.052 11.3387C108.956 11.6432 108.915 11.9755 108.915 12.2939C108.915 12.64 108.97 12.9862 109.093 13.3184C109.203 13.5953 109.368 13.8584 109.588 14.066C109.808 14.2737 110.069 14.426 110.357 14.5229C110.687 14.6337 111.016 14.6752 111.36 14.6752C111.621 14.6752 111.882 14.6613 112.143 14.6337C112.362 14.606 112.596 14.5644 112.816 14.5091C113.008 14.4675 113.187 14.4121 113.379 14.3429C113.544 14.2737 113.695 14.2183 113.832 14.1491L113.819 15.1874Z" fill="black"/>
<path d="M121.84 15.3536C121.731 15.3951 121.593 15.4366 121.456 15.4782C121.305 15.5197 121.167 15.5474 121.016 15.5751C120.865 15.6028 120.687 15.6305 120.508 15.6443C120.329 15.6581 120.137 15.672 119.945 15.672C119.601 15.672 119.258 15.6443 118.928 15.5612C118.667 15.492 118.42 15.3813 118.2 15.2013C118.008 15.0351 117.857 14.8136 117.761 14.5783C117.651 14.2875 117.61 13.9691 117.623 13.6507V10.0511H116.236V9.06815H117.665L117.816 7.46219H118.832V9.06815H121.909V10.0511H118.832V13.4846C118.832 13.6784 118.86 13.8584 118.915 14.0522C118.97 14.1906 119.066 14.3291 119.176 14.4121C119.313 14.509 119.464 14.5783 119.629 14.606C119.849 14.6475 120.069 14.6613 120.288 14.6613C120.426 14.6613 120.563 14.6613 120.7 14.6475C120.838 14.6336 120.961 14.6198 121.099 14.5921C121.222 14.5644 121.346 14.5367 121.47 14.509C121.593 14.4814 121.689 14.4398 121.799 14.3983L121.84 15.3536Z" fill="black"/>
<path d="M125.165 15.5197V9.08199H126.277L126.374 10.2449C126.483 10.0788 126.621 9.91266 126.758 9.76037C126.909 9.59423 127.088 9.45579 127.28 9.34503C127.486 9.22043 127.72 9.12352 127.953 9.0543C128.228 8.98508 128.503 8.94354 128.791 8.94354C129.011 8.94354 129.217 8.95739 129.423 8.98508C129.588 9.01277 129.753 9.0543 129.918 9.10968V10.2172C129.821 10.1895 129.725 10.1757 129.629 10.148C129.533 10.1342 129.423 10.1203 129.313 10.1065C129.203 10.0926 129.093 10.0788 128.983 10.0788C128.874 10.0788 128.75 10.0649 128.64 10.0649C128.434 10.0649 128.228 10.0788 128.036 10.1203C127.871 10.1619 127.692 10.2172 127.541 10.2865C127.404 10.3557 127.266 10.4249 127.143 10.5218C126.937 10.6741 126.744 10.8679 126.593 11.0756C126.538 11.1587 126.483 11.2417 126.429 11.3248V15.5197H125.165Z" fill="black"/>
<path d="M136.154 15.672C135.742 15.672 135.33 15.6304 134.931 15.5612C134.588 15.492 134.272 15.3812 133.956 15.229C133.681 15.0905 133.434 14.9244 133.214 14.7167C133.008 14.5229 132.83 14.2875 132.692 14.0383C132.555 13.7891 132.459 13.5122 132.39 13.2215C132.321 12.9169 132.294 12.6123 132.294 12.2939C132.294 11.9893 132.321 11.6848 132.39 11.3802C132.459 11.1033 132.555 10.8264 132.692 10.5772C132.83 10.328 133.008 10.0926 133.214 9.89881C133.434 9.69115 133.681 9.51117 133.956 9.38657C134.258 9.23428 134.588 9.12352 134.931 9.0543C135.33 8.97123 135.728 8.9297 136.14 8.94354C136.552 8.94354 136.964 8.98508 137.363 9.0543C137.706 9.12352 138.022 9.23428 138.338 9.38657C138.613 9.52501 138.86 9.69115 139.08 9.89881C139.286 10.0926 139.464 10.328 139.602 10.5772C139.739 10.8402 139.835 11.1033 139.904 11.394C139.973 11.6986 140 12.0032 140 12.3078C140 12.6123 139.973 12.9169 139.904 13.2215C139.835 13.4984 139.739 13.7753 139.602 14.0245C139.464 14.2737 139.286 14.509 139.08 14.7029C138.86 14.9105 138.613 15.0905 138.338 15.229C138.036 15.3812 137.706 15.492 137.363 15.5612C136.951 15.6443 136.552 15.672 136.154 15.672ZM136.154 14.7029C136.538 14.7167 136.937 14.6475 137.308 14.5367C137.61 14.4398 137.885 14.2737 138.104 14.0522C138.324 13.8445 138.475 13.5815 138.571 13.2907C138.777 12.64 138.777 11.9478 138.571 11.311C138.475 11.0202 138.31 10.7572 138.104 10.5495C137.871 10.328 137.596 10.1619 137.308 10.0649C136.552 9.84343 135.755 9.84343 135.014 10.0649C134.712 10.1619 134.451 10.328 134.217 10.5495C133.997 10.7572 133.846 11.0202 133.75 11.311C133.544 11.9478 133.544 12.6539 133.75 13.2907C133.846 13.5815 134.011 13.8445 134.217 14.0522C134.451 14.2737 134.725 14.4398 135.014 14.5367C135.371 14.6613 135.755 14.7167 136.154 14.7029Z" fill="black"/>
<path fill-rule="evenodd" clip-rule="evenodd" d="M10.4945 25.6816C10.4945 25.6816 9.91755 25.4462 9.78018 25.1416C9.58788 24.7263 10.0961 24.4217 10.6593 24.0202C11.2225 23.6187 14.5741 20.7945 17.3077 18.2471C22.5549 13.3323 22.6785 11.0479 22.7747 10.6603C22.8296 9.71884 22.2665 7.30989 21.7994 6.64536C21.456 7.60063 19.9313 10.5357 13.8049 15.5197C12.8983 16.2673 6.66205 21.1683 5.72799 22.262C4.97249 23.1342 5.74172 23.7018 6.01645 23.9095C6.92304 24.6017 8.18678 25.3493 10.4945 25.6816Z" fill="#DAD7D7"/>
<path fill-rule="evenodd" clip-rule="evenodd" d="M17.445 0C17.0192 0.595314 15.989 2.78275 8.26922 8.87433C4.60164 11.7817 2.0879 13.6645 0.618124 15.672C0.618124 15.672 0.137355 16.295 0.370871 16.9595C0.604388 17.6241 1.40109 19.41 1.82692 19.9499C2.45878 20.7391 3.7912 20.6145 3.7912 20.6145C3.7912 20.6145 2.81593 20.4345 3.09065 19.8392C3.44779 19.0777 7.0467 15.9766 11.2775 12.2939C17.0192 7.28221 17.9533 5.30245 18.4203 3.95953C18.5439 2.78275 18.1044 0.913738 17.445 0Z" fill="#DAD7D7"/>
<path d="M62.967 15.229C62.8159 15.2982 62.651 15.3536 62.4862 15.4089C62.3076 15.4782 62.1153 15.5197 61.923 15.5612C61.6895 15.6028 61.4697 15.6443 61.2362 15.672C60.9477 15.6997 60.6593 15.7135 60.3708 15.7135C59.8626 15.7274 59.3406 15.6443 58.8598 15.4643C58.4477 15.312 58.0631 15.0905 57.7334 14.7859C57.4175 14.4814 57.184 14.1214 57.0329 13.7199C56.8681 13.2769 56.7856 12.8062 56.7856 12.3355C56.7856 12.0309 56.8131 11.7263 56.8955 11.4217C56.9642 11.1448 57.0604 10.8679 57.2115 10.6049C57.3488 10.3557 57.5274 10.1203 57.7334 9.92652C57.9532 9.71885 58.2005 9.53888 58.4752 9.41428C58.7774 9.26199 59.1071 9.15123 59.4367 9.08201C59.8214 8.99894 60.2197 8.95741 60.6181 8.97125C60.8378 8.97125 61.0439 8.9851 61.2637 8.99894C61.4834 9.01278 61.6758 9.04047 61.8818 9.08201C62.0741 9.12354 62.2664 9.16507 62.4312 9.20661C62.5823 9.24814 62.7472 9.30352 62.8845 9.37274V10.3834C62.7472 10.328 62.5823 10.2726 62.4175 10.2311C62.2527 10.1896 62.0604 10.1342 61.8681 10.0927C61.6757 10.0511 61.4697 10.0234 61.2499 9.99574C61.0301 9.96806 60.8104 9.96806 60.5906 9.96806C60.1922 9.95421 59.8076 10.0234 59.4367 10.148C59.1483 10.2449 58.8736 10.4111 58.6538 10.6326C58.4477 10.8403 58.2966 11.1033 58.2005 11.3802C58.1043 11.6848 58.0631 12.017 58.0631 12.3355C58.0631 12.6816 58.1181 13.0277 58.2417 13.36C58.3516 13.6369 58.5164 13.8999 58.7362 14.1076C58.956 14.3152 59.217 14.4675 59.5054 14.5644C59.8351 14.6752 60.1648 14.7167 60.5082 14.7167C60.7692 14.7167 61.0301 14.7029 61.2911 14.6752C61.5109 14.6475 61.7444 14.606 61.9642 14.5506C62.1565 14.5091 62.3351 14.4537 62.5274 14.3845C62.6922 14.3152 62.8433 14.2599 62.9807 14.1906L62.967 15.229Z" fill="black"/>
<path d="M45.7417 18.1363V10.3557L46.8543 9.69117C47.0054 9.59426 47.184 9.49734 47.3763 9.40043C47.5686 9.31737 47.7747 9.2343 47.9944 9.17892C48.2142 9.1097 48.434 9.06816 48.6813 9.02663C48.9148 8.9851 49.162 8.97125 49.4093 8.97125C49.9725 8.97125 50.467 9.04047 50.9203 9.19276C51.3736 9.34505 51.7582 9.55272 52.0741 9.84346C52.3901 10.1203 52.6373 10.4803 52.8159 10.8956C52.9944 11.311 53.0769 11.7817 53.0769 12.3078C53.0769 12.8339 52.9945 13.2907 52.8296 13.7061C52.6648 14.1214 52.4175 14.4675 52.1016 14.7583C51.7857 15.049 51.3873 15.2705 50.9203 15.4228C50.4532 15.5751 49.9313 15.6582 49.3406 15.6582C49.1071 15.6582 48.8873 15.6443 48.6675 15.6166C48.4477 15.5889 48.2417 15.5474 48.0357 15.5059C47.8296 15.4505 47.6373 15.3951 47.4725 15.3259C47.2939 15.2567 47.1291 15.1597 46.9917 15.0628V18.1363H45.7417ZM46.9642 14.066C47.1153 14.1629 47.2802 14.246 47.445 14.3291C47.6098 14.4121 47.7884 14.4675 47.967 14.5229C48.1455 14.5783 48.3379 14.6198 48.5302 14.6475C48.7225 14.6752 48.9285 14.689 49.1483 14.689C49.5741 14.689 49.9587 14.6337 50.2884 14.5367C50.6181 14.4398 50.8928 14.2875 51.1263 14.0937C51.3461 13.8999 51.5247 13.6507 51.6346 13.3461C51.7444 13.0554 51.8131 12.7093 51.8131 12.3078C51.8131 11.9063 51.7582 11.5602 51.6346 11.2694C51.5247 10.9787 51.3461 10.7295 51.1263 10.5218C50.9065 10.328 50.6181 10.1757 50.2884 10.065C49.9587 9.96806 49.5741 9.91268 49.1483 9.91268C48.9422 9.91268 48.7362 9.92652 48.5302 9.95421C48.3379 9.9819 48.1455 10.0234 47.967 10.0788C47.7884 10.1342 47.6098 10.2034 47.445 10.2726C47.2802 10.3557 47.1153 10.508 46.9642 10.6326V14.066Z" fill="black"/>
<path d="M40.7966 15.049C40.618 15.132 40.4257 15.2151 40.2197 15.2843C39.9999 15.3674 39.7801 15.4228 39.5603 15.4643C39.3131 15.5197 39.0521 15.5612 38.7911 15.5889C38.4889 15.6166 38.2005 15.6304 37.8983 15.6304C37.5136 15.6304 37.129 15.5889 36.7444 15.5197C36.4147 15.4505 36.0988 15.3397 35.8103 15.1874C35.5494 15.049 35.3021 14.869 35.0823 14.6613C34.8763 14.4537 34.6977 14.2183 34.5603 13.9691C34.423 13.7061 34.3131 13.4292 34.2444 13.1384C34.1757 12.82 34.1345 12.5016 34.1345 12.1832C34.1345 11.8786 34.162 11.5878 34.2444 11.2971C34.3131 11.0202 34.423 10.7572 34.5603 10.508C34.6977 10.2588 34.8763 10.0373 35.0686 9.84343C35.2746 9.63577 35.5081 9.46963 35.7691 9.33119C36.0439 9.1789 36.3461 9.08199 36.6483 9.01276C36.9917 8.9297 37.3488 8.90201 37.706 8.90201C38.0494 8.90201 38.4065 8.9297 38.7362 9.01276C39.0384 9.08199 39.3268 9.1789 39.6016 9.31734C39.8488 9.44194 40.0823 9.60808 40.3021 9.78806C40.4944 9.96803 40.673 10.1895 40.8104 10.4111C40.9477 10.6464 41.0576 10.9095 41.1263 11.1725C41.195 11.4494 41.2362 11.7401 41.2362 12.0309C41.2362 12.0724 41.2362 12.1139 41.2362 12.1555C41.2362 12.197 41.2362 12.2524 41.2362 12.2939C41.2362 12.3354 41.2362 12.377 41.2224 12.4185C41.2087 12.46 41.2224 12.4877 41.2087 12.5154H35.3708C35.3845 12.82 35.4532 13.1107 35.5768 13.3876C35.6867 13.6507 35.8653 13.8722 36.0851 14.0522C36.3186 14.246 36.5933 14.3983 36.8955 14.4813C37.2664 14.5921 37.6373 14.6336 38.0219 14.6336C38.3103 14.6336 38.5851 14.6198 38.8735 14.5921C39.1208 14.5644 39.3543 14.5229 39.5878 14.4675C39.7939 14.4121 40.0136 14.3567 40.2197 14.2875C40.412 14.2183 40.6043 14.1491 40.7966 14.066V15.049ZM40.0274 11.574C39.9999 11.3248 39.9175 11.0894 39.7939 10.8818C39.6702 10.6741 39.4917 10.4803 39.2994 10.3418C39.0796 10.1895 38.8461 10.0649 38.5851 9.99572C38.0081 9.82959 37.4038 9.82959 36.8268 9.99572C36.5658 10.0649 36.3323 10.1895 36.1125 10.3418C35.9065 10.4941 35.7417 10.6741 35.618 10.8818C35.4944 11.0894 35.412 11.3248 35.3845 11.574H40.0274Z" fill="black"/>
</svg>