<svg width="140" height="26" viewBox="0 0 140 26" fill="none" xmlns="http://www.w3.org/2000/svg">
<path fill-rule="evenodd" clip-rule="evenodd" d="M4.23384 3.50223C0.401518 6.85221 0.016911 10.8528 0.016911 10.8528C0.016911 10.8528 -0.120448 11.5727 0.387781 11.9187C0.635028 12.071 0.909748 12.1264 1.1982 12.0848C1.1982 12.0848 0.566349 12.0848 0.566349 11.5311C0.566349 11.0605 1.63775 9.82845 2.65421 8.66564C4.48109 6.57535 7.6953 3.84828 12.2144 0.415245C12.2144 0.415245 8.0387 0.179914 4.23384 3.50223Z" fill="#DAD7D7"/>
<path d="M73.3257 15.6879C73.8946 15.6879 74.3559 15.2231 74.3559 14.6497C74.3559 14.0763 73.8946 13.6115 73.3257 13.6115C72.7566 13.6115 72.2953 14.0763 72.2953 14.6497C72.2953 15.2231 72.7566 15.6879 73.3257 15.6879Z" fill="#DAD7D7"/>
<path fill-rule="evenodd" clip-rule="evenodd" d="M16.2527 6.40922C15.6895 6.14621 16.1016 5.50943 13.5467 5.81398C6.51388 6.64455 3.62933 7.46128 3.62933 7.46128C3.62933 7.46128 3.4233 7.83505 1.34916 9.64848C-0.724968 11.4619 0.950816 12.071 0.950816 12.071C1.7475 12.2925 13.0797 9.08092 13.0797 9.08092L16.2527 6.40922ZM4.46721 16.2931C4.46721 16.2931 2.06343 20.003 2.53046 20.4183C2.99746 20.8336 6.45892 20.4321 11.7061 20.1968C16.9532 19.9615 15.3461 18.7294 15.3461 18.7294C15.3461 18.7294 16.6647 17.359 17.6125 16.2654C18.5603 15.1718 18.5603 14.6458 18.5603 14.6458C16.8845 14.5627 4.46721 16.2931 4.46721 16.2931ZM10.6072 23.1314C10.6072 23.1314 9.26107 23.1314 9.26107 24.0451C9.26107 24.5158 9.35722 25.0002 9.56326 25.4295C13.6978 26.7446 16.4175 25.3741 16.4175 25.3741L17.5988 24.0451C13.5879 24.5158 10.6072 23.1314 10.6072 23.1314Z" fill="#F0EFEF"/>
<path d="M88.3116 15.0751C88.133 15.1581 87.9407 15.2412 87.7347 15.3104C87.515 15.3934 87.2952 15.4488 87.0753 15.5042C86.8281 15.5596 86.5671 15.6011 86.3062 15.6288C86.004 15.6565 85.7155 15.6703 85.4133 15.6703C85.0286 15.6703 84.6442 15.6288 84.2595 15.5596C83.9298 15.4904 83.6138 15.3796 83.3255 15.2273C83.0644 15.0889 82.8172 14.9089 82.5975 14.7013C82.3914 14.4937 82.2128 14.2583 82.0754 14.0092C81.9381 13.7461 81.8281 13.4693 81.7595 13.1786C81.6909 12.8602 81.6496 12.5418 81.6496 12.2234C81.6496 11.9189 81.6771 11.6282 81.7595 11.3375C81.8281 11.0606 81.9381 10.7976 82.0754 10.5484C82.2128 10.2992 82.3914 10.0777 82.5836 9.88395C82.7897 9.67631 83.0233 9.51019 83.2843 9.37177C83.559 9.21949 83.8612 9.1226 84.1634 9.05338C84.5067 8.97032 84.8639 8.94263 85.2211 8.94263C85.5644 8.94263 85.9215 8.97032 86.2512 9.05338C86.5534 9.1226 86.8417 9.21949 87.1167 9.35792C87.3639 9.4825 87.5974 9.64863 87.8171 9.82858C88.0094 10.0085 88.188 10.23 88.3254 10.4515C88.4627 10.6868 88.5726 10.9499 88.6412 11.2129C88.7099 11.4897 88.7512 11.7804 88.7512 12.0711C88.7512 12.1127 88.7512 12.1542 88.7512 12.1957C88.7512 12.2373 88.7512 12.2926 88.7512 12.3342C88.7512 12.3757 88.7512 12.4172 88.7373 12.4587C88.7237 12.5003 88.7373 12.528 88.7237 12.5556H82.8858C82.8997 12.8463 82.9683 13.137 83.0919 13.4139C83.2018 13.6769 83.3804 13.8984 83.6001 14.0784C83.8337 14.2722 84.1084 14.4244 84.4106 14.5075C84.7814 14.6182 85.1522 14.6598 85.5369 14.6598C85.8254 14.6598 86.1001 14.6459 86.3885 14.6182C86.6359 14.5906 86.8692 14.549 87.1028 14.4937C87.3089 14.4383 87.5286 14.3829 87.7347 14.3137C87.9269 14.2445 88.1193 14.1753 88.3116 14.0922V15.0751ZM87.5424 11.6005C87.515 11.3513 87.4325 11.116 87.3089 10.9083C87.1853 10.7007 87.0067 10.5069 86.8145 10.3684C86.5945 10.2162 86.3612 10.0916 86.1001 10.0224C85.5232 9.85626 84.9189 9.85626 84.342 10.0224C84.0809 10.0916 83.8474 10.2162 83.6276 10.3684C83.4216 10.5207 83.2568 10.7007 83.1332 10.9083C83.0094 11.116 82.9272 11.3513 82.8997 11.6005H87.5424Z" fill="black"/>
<path d="M95.3444 15.4765C95.2483 15.5042 95.1521 15.5319 95.056 15.5457C94.9597 15.5595 94.8361 15.5872 94.7125 15.6149C94.5889 15.6288 94.4514 15.6565 94.3142 15.6565C94.1767 15.6565 94.0257 15.6703 93.8609 15.6703C93.5862 15.6703 93.3115 15.6426 93.0505 15.5595C92.8444 15.5042 92.6658 15.3934 92.5147 15.2412C92.3775 15.0889 92.2813 14.9228 92.2264 14.7151C92.1577 14.4798 92.1302 14.2445 92.1302 13.9953V6.42322H93.3665V13.8569C93.3665 13.9676 93.3801 14.0784 93.3938 14.1891C93.4213 14.3829 93.5724 14.5352 93.7509 14.5767C93.8746 14.6182 94.012 14.6321 94.1495 14.6182C94.3692 14.6182 94.6025 14.6044 94.8225 14.5905C95.0011 14.5767 95.1658 14.549 95.3307 14.4936L95.3444 15.4765Z" fill="black"/>
<path d="M104.328 15.075C104.149 15.158 103.957 15.2411 103.751 15.3103C103.531 15.3934 103.311 15.4487 103.091 15.4903C102.844 15.5456 102.583 15.5872 102.322 15.6149C102.02 15.6425 101.732 15.6564 101.429 15.6564C101.045 15.6564 100.66 15.6149 100.275 15.5456C99.9458 15.4764 99.63 15.3657 99.3414 15.2134C99.0806 15.075 98.8334 14.895 98.6134 14.6874C98.4074 14.4797 98.229 14.2444 98.0915 13.9952C97.9541 13.7322 97.8443 13.4553 97.7755 13.1646C97.7069 12.8463 97.6657 12.5279 97.6657 12.2095C97.6657 11.9049 97.6932 11.6142 97.7755 11.3235C97.8443 11.0467 97.9541 10.7837 98.0915 10.5345C98.229 10.2853 98.4074 10.0638 98.5998 9.87004C98.8059 9.66238 99.0392 9.49627 99.3003 9.35783C99.575 9.20557 99.8772 9.10866 100.179 9.03944C100.523 8.9564 100.88 8.92871 101.237 8.92871C101.581 8.92871 101.938 8.9564 102.267 9.03944C102.569 9.10866 102.858 9.20557 103.133 9.34399C103.38 9.46858 103.613 9.63469 103.833 9.81466C104.026 9.99461 104.204 10.2161 104.341 10.4376C104.479 10.6729 104.589 10.9359 104.657 11.199C104.726 11.4758 104.767 11.7665 104.767 12.0572C104.767 12.0987 104.767 12.1403 104.767 12.1818C104.767 12.2233 104.767 12.2787 104.767 12.3202C104.767 12.3618 104.767 12.4033 104.754 12.4448C104.74 12.4864 104.754 12.514 104.74 12.5417H98.902C98.9156 12.8463 98.9845 13.137 99.1081 13.4138C99.2178 13.6768 99.3964 13.8983 99.6163 14.0783C99.8497 14.2721 100.124 14.4244 100.427 14.5074C100.798 14.6182 101.168 14.6597 101.553 14.6597C101.841 14.6597 102.116 14.6458 102.405 14.6182C102.652 14.5905 102.885 14.5489 103.119 14.4936C103.325 14.4382 103.545 14.3828 103.751 14.3136C103.943 14.2444 104.135 14.1752 104.328 14.0921V15.075ZM103.558 11.6004C103.531 11.3512 103.449 11.1159 103.325 10.9082C103.201 10.7006 103.023 10.5068 102.83 10.3684C102.611 10.2161 102.377 10.0915 102.116 10.0223C101.539 9.85619 100.935 9.85619 100.358 10.0223C100.097 10.0915 99.8635 10.2161 99.6436 10.3684C99.4377 10.5206 99.2728 10.7006 99.1492 10.9082C99.0256 11.1159 98.9431 11.3512 98.9156 11.6004H103.558Z" fill="black"/>
<path d="M113.819 15.1857C113.668 15.2549 113.503 15.3102 113.338 15.3656C113.16 15.4348 112.968 15.4764 112.775 15.5179C112.542 15.5594 112.322 15.6009 112.089 15.6286C111.8 15.6563 111.512 15.6702 111.223 15.6702C110.715 15.684 110.193 15.6009 109.712 15.421C109.3 15.2687 108.916 15.0472 108.586 14.7427C108.27 14.4381 108.036 14.0782 107.885 13.6768C107.72 13.2338 107.638 12.7631 107.638 12.2925C107.638 11.9879 107.665 11.6834 107.748 11.3789C107.817 11.102 107.913 10.8251 108.064 10.5621C108.201 10.313 108.38 10.0776 108.586 9.88382C108.806 9.67618 109.053 9.49621 109.328 9.37163C109.63 9.21935 109.959 9.10862 110.289 9.0394C110.674 8.95634 111.072 8.9148 111.47 8.92865C111.69 8.92865 111.896 8.94249 112.116 8.95634C112.336 8.97018 112.528 8.99787 112.734 9.0394C112.926 9.08093 113.119 9.12246 113.284 9.164C113.435 9.20551 113.599 9.26088 113.737 9.3301V10.3406C113.599 10.2853 113.435 10.2299 113.27 10.1884C113.105 10.1468 112.913 10.0915 112.72 10.0499C112.528 10.0084 112.322 9.98073 112.102 9.95304C111.882 9.92535 111.663 9.92535 111.443 9.92535C111.044 9.91151 110.66 9.98073 110.289 10.1053C110.001 10.2022 109.726 10.3683 109.506 10.5898C109.3 10.7975 109.149 11.0605 109.053 11.3373C108.957 11.6419 108.916 11.9741 108.916 12.2925C108.916 12.6386 108.97 12.9846 109.094 13.3169C109.204 13.5937 109.369 13.8567 109.589 14.0644C109.808 14.272 110.069 14.4243 110.358 14.5212C110.688 14.632 111.017 14.6735 111.361 14.6735C111.621 14.6735 111.882 14.6596 112.143 14.632C112.363 14.6043 112.597 14.5627 112.816 14.5074C113.009 14.4658 113.187 14.4105 113.38 14.3413C113.544 14.272 113.696 14.2167 113.833 14.1474L113.819 15.1857Z" fill="black"/>
<path d="M121.841 15.3518C121.731 15.3933 121.594 15.4348 121.456 15.4764C121.305 15.5179 121.168 15.5456 121.017 15.5733C120.866 15.601 120.687 15.6286 120.509 15.6425C120.33 15.6563 120.138 15.6702 119.945 15.6702C119.602 15.6702 119.259 15.6425 118.929 15.5594C118.668 15.4902 118.421 15.3795 118.201 15.1995C118.009 15.0334 117.858 14.8119 117.761 14.5766C117.651 14.2859 117.61 13.9675 117.624 13.6491V10.0499H116.237V9.06708H117.665L117.816 7.4613H118.833V9.06708H121.91V10.0499H118.833V13.483C118.833 13.6768 118.86 13.8567 118.915 14.0505C118.97 14.189 119.066 14.3274 119.176 14.4105C119.314 14.5073 119.465 14.5766 119.63 14.6043C119.849 14.6458 120.069 14.6596 120.289 14.6596C120.426 14.6596 120.564 14.6596 120.701 14.6458C120.838 14.6319 120.962 14.6181 121.099 14.5904C121.223 14.5627 121.347 14.535 121.47 14.5073C121.594 14.4797 121.69 14.4381 121.8 14.3966L121.841 15.3518Z" fill="black"/>
<path d="M125.165 15.518V9.08107H126.278L126.374 10.2439C126.484 10.0777 126.621 9.91164 126.758 9.75938C126.91 9.59325 127.088 9.45483 127.28 9.34408C127.486 9.21949 127.72 9.1226 127.954 9.05338C128.228 8.98416 128.503 8.94263 128.791 8.94263C129.011 8.94263 129.217 8.95647 129.423 8.98416C129.588 9.01185 129.753 9.05338 129.918 9.10876V10.2162C129.822 10.1885 129.725 10.1747 129.629 10.147C129.533 10.1331 129.423 10.1193 129.313 10.1054C129.203 10.0916 129.094 10.0777 128.984 10.0777C128.874 10.0777 128.75 10.0639 128.64 10.0639C128.434 10.0639 128.228 10.0777 128.036 10.1193C127.871 10.1608 127.693 10.2162 127.541 10.2854C127.404 10.3546 127.267 10.4238 127.143 10.5207C126.937 10.673 126.745 10.8668 126.594 11.0744C126.539 11.1575 126.484 11.2406 126.429 11.3236V15.518H125.165Z" fill="black"/>
<path d="M136.154 15.6702C135.742 15.6702 135.33 15.6287 134.931 15.5595C134.588 15.4903 134.272 15.3795 133.956 15.2273C133.681 15.0888 133.434 14.9227 133.214 14.7151C133.008 14.5213 132.83 14.2859 132.692 14.0368C132.555 13.7876 132.459 13.5107 132.39 13.22C132.321 12.9155 132.294 12.6109 132.294 12.2925C132.294 11.988 132.321 11.6835 132.39 11.3789C132.459 11.1021 132.555 10.8252 132.692 10.576C132.83 10.3269 133.008 10.0915 133.214 9.89773C133.434 9.69008 133.681 9.51013 133.956 9.38553C134.258 9.23327 134.588 9.12252 134.931 9.05332C135.33 8.97025 135.728 8.92872 136.14 8.94256C136.552 8.94256 136.964 8.9841 137.363 9.05332C137.706 9.12252 138.022 9.23327 138.338 9.38553C138.613 9.52397 138.86 9.69008 139.08 9.89773C139.286 10.0915 139.464 10.3269 139.601 10.576C139.739 10.839 139.835 11.1021 139.904 11.3928C139.973 11.6973 140 12.0018 140 12.3064C140 12.6109 139.973 12.9155 139.904 13.22C139.835 13.4969 139.739 13.7737 139.601 14.0229C139.464 14.2721 139.286 14.5074 139.08 14.7012C138.86 14.9089 138.613 15.0888 138.338 15.2273C138.036 15.3795 137.706 15.4903 137.363 15.5595C136.951 15.6426 136.552 15.6702 136.154 15.6702ZM136.154 14.7012C136.538 14.7151 136.937 14.6459 137.308 14.5351C137.61 14.4382 137.885 14.2721 138.104 14.0506C138.324 13.843 138.475 13.58 138.571 13.2893C138.777 12.6386 138.777 11.9465 138.571 11.3097C138.475 11.019 138.31 10.756 138.104 10.5483C137.871 10.3269 137.596 10.1607 137.308 10.0638C136.552 9.84236 135.756 9.84236 135.014 10.0638C134.711 10.1607 134.451 10.3269 134.217 10.5483C133.997 10.756 133.846 11.019 133.75 11.3097C133.544 11.9465 133.544 12.6525 133.75 13.2893C133.846 13.58 134.011 13.843 134.217 14.0506C134.451 14.2721 134.725 14.4382 135.014 14.5351C135.371 14.6597 135.756 14.7151 136.154 14.7012Z" fill="black"/>
<path fill-rule="evenodd" clip-rule="evenodd" d="M10.4974 25.6788C10.4974 25.6788 9.9205 25.4433 9.78313 25.1388C9.59082 24.7234 10.0991 24.4191 10.6622 24.0175C11.2254 23.6161 14.577 20.7921 17.3104 18.245C22.5575 13.3308 22.6811 11.0467 22.7774 10.6591C22.8322 9.71778 22.2692 7.30912 21.802 6.64465C21.4587 7.59982 19.934 10.5345 13.8078 15.518C12.9012 16.2655 6.66507 21.1659 5.73104 22.2594C4.97555 23.1315 5.74476 23.6992 6.01948 23.9068C6.92607 24.5989 8.18976 25.3465 10.4974 25.6788Z" fill="#DAD7D7"/>
<path fill-rule="evenodd" clip-rule="evenodd" d="M17.4477 0C17.0219 0.595246 15.9917 2.78242 8.27208 8.87332C4.60458 11.7803 2.0909 13.663 0.621153 15.6702C0.621153 15.6702 0.140395 16.2931 0.373907 16.9576C0.607416 17.6221 1.4041 19.4078 1.82992 19.9477C2.46177 20.7367 3.79415 20.6121 3.79415 20.6121C3.79415 20.6121 2.8189 20.4322 3.09362 19.8369C3.45075 19.0756 7.04958 15.9748 11.2803 12.2925C17.0219 7.28139 17.9559 5.30185 18.4229 3.95907C18.5466 2.78242 18.107 0.913633 17.4477 0Z" fill="#DAD7D7"/>
<path d="M62.9687 15.2272C62.8176 15.2964 62.6528 15.3517 62.4879 15.4071C62.3095 15.4763 62.1171 15.5179 61.9249 15.5594C61.6913 15.6009 61.4716 15.6425 61.238 15.6701C60.9497 15.6978 60.6611 15.7117 60.3726 15.7117C59.8645 15.7255 59.3424 15.6424 58.8616 15.4625C58.4497 15.3102 58.065 15.0887 57.7354 14.7842C57.4195 14.4796 57.186 14.1197 57.0349 13.7183C56.8699 13.2753 56.7877 12.8047 56.7877 12.334C56.7877 12.0294 56.8151 11.7249 56.8974 11.4204C56.9662 11.1435 57.0624 10.8666 57.2134 10.6036C57.3507 10.3544 57.5293 10.1191 57.7354 9.92532C57.9551 9.71766 58.2025 9.53771 58.4772 9.41314C58.7794 9.26085 59.1091 9.1501 59.4385 9.0809C59.8232 8.99784 60.2215 8.95631 60.62 8.97015C60.8397 8.97015 61.0458 8.984 61.2655 8.99784C61.4852 9.01168 61.6777 9.03937 61.8835 9.0809C62.076 9.12244 62.2682 9.16395 62.4331 9.20548C62.5842 9.24701 62.749 9.30239 62.8864 9.37161V10.3821C62.749 10.3268 62.5842 10.2714 62.4193 10.2299C62.2545 10.1883 62.0621 10.133 61.8699 10.0914C61.6777 10.0499 61.4716 10.0222 61.2519 9.99452C61.0319 9.96685 60.8122 9.96685 60.5925 9.96685C60.1942 9.95301 59.8095 10.0222 59.4385 10.1468C59.1502 10.2437 58.8755 10.4098 58.6558 10.6313C58.4497 10.839 58.2986 11.102 58.2025 11.3788C58.1062 11.6834 58.065 12.0156 58.065 12.334C58.065 12.6801 58.12 13.0261 58.2436 13.3584C58.3536 13.6352 58.5183 13.8982 58.738 14.1059C58.958 14.3135 59.2188 14.4658 59.5074 14.5627C59.837 14.6734 60.1667 14.715 60.51 14.715C60.7711 14.715 61.0319 14.7011 61.293 14.6734C61.5127 14.6457 61.7463 14.6042 61.966 14.5489C62.1584 14.5073 62.3368 14.452 62.5292 14.3827C62.694 14.3135 62.8451 14.2582 62.9825 14.1889L62.9687 15.2272Z" fill="black"/>
<path d="M45.7437 18.1342V10.3545L46.8564 9.69006C47.0075 9.59315 47.1861 9.49624 47.3785 9.39936C47.5707 9.31629 47.7768 9.23323 47.9965 9.17785C48.2162 9.10865 48.4362 9.06712 48.6834 9.02559C48.9169 8.98406 49.1641 8.97021 49.4113 8.97021C49.9746 8.97021 50.469 9.03943 50.9223 9.1917C51.3756 9.34398 51.7602 9.55162 52.0761 9.84232C52.3921 10.1192 52.6393 10.4791 52.8179 10.8944C52.9965 11.3097 53.0789 11.7803 53.0789 12.3064C53.0789 12.8324 52.9965 13.2892 52.8315 13.7045C52.6668 14.1198 52.4196 14.4659 52.1035 14.7566C51.7877 15.0473 51.3894 15.2687 50.9223 15.421C50.4554 15.5733 49.9332 15.6564 49.3427 15.6564C49.1092 15.6564 48.8894 15.6425 48.6695 15.6148C48.4498 15.5871 48.2437 15.5456 48.0379 15.5041C47.8318 15.4487 47.6393 15.3933 47.4746 15.3241C47.296 15.2549 47.1311 15.158 46.9938 15.0611V18.1342H45.7437ZM46.9663 14.0644C47.1174 14.1613 47.2822 14.2444 47.4471 14.3274C47.6119 14.4105 47.7904 14.4659 47.969 14.5212C48.1476 14.5766 48.34 14.6181 48.5323 14.6458C48.7245 14.6735 48.9306 14.6873 49.1503 14.6873C49.5761 14.6873 49.9607 14.632 50.2904 14.5351C50.6201 14.4382 50.8948 14.2859 51.1284 14.0921C51.3481 13.8983 51.5267 13.6491 51.6366 13.3446C51.7464 13.0539 51.8152 12.7078 51.8152 12.3064C51.8152 11.9049 51.7602 11.5588 51.6366 11.2681C51.5267 10.9774 51.3481 10.7283 51.1284 10.5206C50.9086 10.3268 50.6201 10.1746 50.2904 10.0638C49.9607 9.96692 49.5761 9.91154 49.1503 9.91154C48.9444 9.91154 48.7383 9.92538 48.5323 9.95307C48.34 9.98076 48.1476 10.0223 47.969 10.0776C47.7904 10.133 47.6119 10.2022 47.4471 10.2715C47.2822 10.3545 47.1174 10.5068 46.9663 10.6314V14.0644Z" fill="black"/>
<path d="M40.799 15.0471C40.6204 15.1302 40.4282 15.2133 40.2221 15.2825C40.0022 15.3655 39.7825 15.4209 39.5627 15.4624C39.3155 15.5178 39.0545 15.5593 38.7934 15.587C38.4912 15.6147 38.2029 15.6285 37.9007 15.6285C37.516 15.6285 37.1314 15.587 36.7469 15.5178C36.4173 15.4486 36.1012 15.3378 35.8129 15.1856C35.5518 15.0471 35.3046 14.8672 35.0849 14.6595C34.8788 14.4519 34.7002 14.2166 34.5628 13.9674C34.4255 13.7044 34.3156 13.4275 34.247 13.1368C34.1781 12.8184 34.137 12.5 34.137 12.1816C34.137 11.8771 34.1645 11.5864 34.247 11.2957C34.3156 11.0188 34.4255 10.7558 34.5628 10.5067C34.7002 10.2575 34.8788 10.036 35.071 9.84218C35.2771 9.63455 35.5107 9.46844 35.7715 9.33C36.0462 9.17774 36.3484 9.08083 36.6506 9.01161C36.9941 8.92857 37.3513 8.90088 37.7083 8.90088C38.0518 8.90088 38.409 8.92857 38.7386 9.01161C39.0408 9.08083 39.3292 9.17774 39.6039 9.31616C39.8511 9.44075 40.0846 9.60686 40.3046 9.78683C40.4968 9.96678 40.6754 10.1883 40.8126 10.4097C40.9501 10.6451 41.06 10.9081 41.1287 11.1711C41.1973 11.448 41.2384 11.7387 41.2384 12.0294C41.2384 12.0709 41.2384 12.1124 41.2384 12.154C41.2384 12.1955 41.2384 12.2509 41.2384 12.2924C41.2384 12.3339 41.2384 12.3755 41.2248 12.417C41.2111 12.4585 41.2248 12.4862 41.2111 12.5139H35.3732C35.3871 12.8184 35.4557 13.1091 35.5793 13.386C35.6893 13.649 35.8676 13.8705 36.0876 14.0504C36.3211 14.2442 36.5958 14.3965 36.898 14.4796C37.2688 14.5903 37.6396 14.6319 38.0243 14.6319C38.3129 14.6319 38.5876 14.618 38.8759 14.5903C39.1231 14.5626 39.3567 14.5211 39.5902 14.4657C39.7963 14.4104 40.016 14.355 40.2221 14.2858C40.4143 14.2166 40.6068 14.1474 40.799 14.0643V15.0471ZM40.0297 11.5726C40.0022 11.3234 39.9199 11.0881 39.7963 10.8804C39.6727 10.6728 39.4941 10.479 39.3017 10.3405C39.082 10.1883 38.8484 10.0637 38.5876 9.99447C38.0105 9.82834 37.4061 9.82834 36.8292 9.99447C36.5683 10.0637 36.3348 10.1883 36.1151 10.3405C35.909 10.4928 35.744 10.6728 35.6204 10.8804C35.4968 11.0881 35.4144 11.3234 35.3871 11.5726H40.0297Z" fill="black"/>
</svg>
