<svg width="190" height="56" viewBox="0 0 190 56" fill="none" xmlns="http://www.w3.org/2000/svg">
<path d="M178.511 0H11.489C5.1438 0 0 5.13878 0 11.4778V44.5222C0 50.8612 5.1438 56 11.489 56H178.511C184.856 56 190 50.8612 190 44.5222V11.4778C190 5.13878 184.856 0 178.511 0Z" fill="#4F4F51"/>
<path d="M38.2881 22.2754L16.9837 10.333C16.6577 10.1484 16.2856 10.061 15.9114 10.0809C15.5372 10.1008 15.1765 10.2273 14.8719 10.4454L32.2872 28.2183L38.2881 22.2754Z" fill="white"/>
<path d="M14.8741 10.4453C14.6151 10.6264 14.4039 10.8675 14.2588 11.148C14.1136 11.4285 14.0387 11.7401 14.0406 12.0558V44.1666C14.039 44.4446 14.097 44.7196 14.2107 44.9732C14.3243 45.2269 14.491 45.4533 14.6995 45.6373L32.2893 28.216L14.8741 10.4453Z" fill="white"/>
<path d="M14.6973 45.6392C15.004 45.9158 15.39 46.089 15.8008 46.1343C16.2115 46.1796 16.6261 46.0947 16.9858 45.8915L38.0415 34.0862L32.2893 28.2168L14.6973 45.6392Z" fill="white"/>
<path d="M45.6249 26.3895L38.288 22.2754L32.2893 28.2172L38.0415 34.0867L45.6249 29.8355C46.9707 29.0807 46.9707 27.1443 45.6249 26.3895Z" fill="white"/>
<path d="M66.9726 42.7495C61.8859 42.7495 57.748 38.6157 57.748 33.5339C57.748 28.4522 61.8859 24.3184 66.9726 24.3184C69.2519 24.3168 71.4507 25.1598 73.1438 26.6842L71.6135 28.3814C70.7768 27.6293 69.7695 27.0918 68.6785 26.8153C67.5875 26.5388 66.4456 26.5317 65.3512 26.7944C64.2568 27.0572 63.2429 27.582 62.3968 28.3235C61.5507 29.0651 60.8979 30.0012 60.4947 31.051C60.0915 32.1008 59.9501 33.2329 60.0825 34.3495C60.2149 35.4662 60.6173 36.5338 61.2549 37.4605C61.8925 38.3871 62.7462 39.1448 63.7423 39.6683C64.7384 40.1918 65.8471 40.4654 66.9726 40.4654C70.2589 40.4654 72.8203 38.1724 73.3156 34.9728H66.9633V32.6886H75.6893V33.8307C75.6893 36.2668 74.7992 38.5202 73.1833 40.1757C71.5673 41.8312 69.3567 42.7495 66.9726 42.7495Z" fill="white"/>
<path d="M82.6166 42.7511C81.4365 42.7512 80.2829 42.4017 79.3016 41.7468C78.3204 41.0919 77.5556 40.161 77.1039 39.0718C76.6523 37.9826 76.5341 36.7841 76.7643 35.6279C76.9945 34.4716 77.5627 33.4095 78.3972 32.5759C79.2316 31.7422 80.2948 31.1746 81.4522 30.9446C82.6096 30.7146 83.8093 30.8327 84.8995 31.2839C85.9897 31.7351 86.9215 32.4992 87.5771 33.4794C88.2326 34.4597 88.5825 35.6122 88.5824 36.7911C88.5806 38.3713 87.9515 39.8862 86.8331 41.0035C85.7147 42.1208 84.1982 42.7493 82.6166 42.7511ZM82.6166 33.1153C81.8889 33.1153 81.1777 33.3309 80.5727 33.7347C79.9677 34.1386 79.4962 34.7125 79.2177 35.3841C78.9393 36.0557 78.8664 36.7946 79.0084 37.5076C79.1503 38.2205 79.5007 38.8754 80.0152 39.3894C80.5297 39.9034 81.1852 40.2534 81.8988 40.3952C82.6125 40.537 83.3522 40.4642 84.0244 40.1861C84.6966 39.9079 85.2712 39.4368 85.6754 38.8324C86.0797 38.228 86.2954 37.5175 86.2954 36.7906C86.2941 35.8162 85.9061 34.8822 85.2165 34.1932C84.5268 33.5043 83.5918 33.1166 82.6166 33.1153Z" fill="white"/>
<path d="M95.6737 42.7511C94.4937 42.7511 93.3401 42.4015 92.3589 41.7465C91.3778 41.0915 90.6131 40.1606 90.1615 39.0714C89.7099 37.9823 89.5918 36.7838 89.8221 35.6275C90.0523 34.4713 90.6206 33.4092 91.4551 32.5757C92.2895 31.7421 93.3527 31.1745 94.5101 30.9445C95.6675 30.7146 96.8671 30.8327 97.9573 31.284C99.0475 31.7352 99.9792 32.4992 100.635 33.4795C101.29 34.4598 101.64 35.6122 101.64 36.7911C101.638 38.3714 101.009 39.8864 99.8905 41.0037C98.772 42.121 97.2555 42.7495 95.6737 42.7511ZM95.6737 33.1153C94.9461 33.1153 94.2348 33.3309 93.6298 33.7347C93.0249 34.1386 92.5533 34.7125 92.2749 35.3841C91.9965 36.0557 91.9236 36.7946 92.0656 37.5076C92.2075 38.2205 92.5579 38.8754 93.0724 39.3894C93.5869 39.9034 94.2424 40.2534 94.956 40.3952C95.6696 40.537 96.4093 40.4642 97.0815 40.1861C97.7537 39.9079 98.3283 39.4368 98.7325 38.8324C99.1368 38.228 99.3525 37.5175 99.3525 36.7906C99.3512 35.8162 98.9632 34.8822 98.2736 34.1932C97.584 33.5043 96.649 33.1166 95.6737 33.1153Z" fill="white"/>
<path d="M164.648 42.3267H162.364V36.0486C162.363 35.3836 162.149 34.7364 161.751 34.2032C161.353 33.67 160.794 33.2793 160.156 33.0893C159.518 32.8992 158.836 32.9199 158.21 33.1483C157.585 33.3767 157.051 33.8006 156.686 34.3569L154.775 33.1029C155.409 32.1356 156.34 31.3987 157.427 31.0019C158.515 30.605 159.701 30.5694 160.811 30.9004C161.92 31.2313 162.893 31.9111 163.585 32.8386C164.276 33.7662 164.65 34.892 164.65 36.0486L164.648 42.3267Z" fill="white"/>
<path d="M125.824 42.7494C124.646 42.7485 123.494 42.3993 122.514 41.7457C121.534 41.0922 120.77 40.1636 120.317 39.0769C119.864 37.9902 119.743 36.7939 119.97 35.6388C120.196 34.4836 120.76 33.4212 121.589 32.5854C122.678 31.4691 124.132 30.8301 125.579 30.8301C127.713 30.8301 129.558 31.9535 130.64 33.9113L131.234 34.9842L122.804 38.8876C123.145 39.3783 123.601 39.7785 124.132 40.0535C124.663 40.3285 125.253 40.47 125.851 40.4658C126.449 40.4616 127.037 40.3117 127.564 40.0293C128.091 39.7469 128.541 39.3403 128.876 38.8449L130.771 40.1235C130.224 40.9325 129.488 41.595 128.625 42.0529C127.763 42.5107 126.801 42.7499 125.824 42.7494ZM125.579 33.1137C124.745 33.1137 123.888 33.502 123.227 34.1795C122.566 34.8459 122.181 35.736 122.147 36.6732L127.876 34.0204C127.26 33.4276 126.434 33.1017 125.579 33.1137Z" fill="white"/>
<path d="M108.502 42.7511C107.322 42.7512 106.168 42.4017 105.187 41.7468C104.206 41.0919 103.441 40.161 102.989 39.0718C102.538 37.9826 102.419 36.7841 102.65 35.6279C102.88 34.4716 103.448 33.4095 104.283 32.5759C105.117 31.7422 106.18 31.1746 107.337 30.9446C108.495 30.7146 109.694 30.8327 110.785 31.2839C111.875 31.7351 112.807 32.4992 113.462 33.4794C114.118 34.4597 114.468 35.6122 114.467 36.7911C114.466 38.3713 113.837 39.8862 112.718 41.0035C111.6 42.1208 110.083 42.7493 108.502 42.7511ZM108.502 33.1153C107.774 33.1153 107.063 33.3309 106.458 33.7347C105.853 34.1386 105.381 34.7125 105.103 35.3841C104.825 36.0557 104.752 36.7946 104.894 37.5076C105.036 38.2205 105.386 38.8754 105.901 39.3894C106.415 39.9034 107.07 40.2534 107.784 40.3952C108.498 40.537 109.237 40.4642 109.91 40.1861C110.582 39.9079 111.156 39.4368 111.561 38.8324C111.965 38.228 112.181 37.5175 112.181 36.7906C112.179 35.8162 111.791 34.8822 111.102 34.1932C110.412 33.5043 109.477 33.1166 108.502 33.1153Z" fill="white"/>
<path d="M108.571 48.1352C107.491 48.1343 106.432 47.836 105.51 47.273C104.589 46.7099 103.84 45.904 103.348 44.9437L105.379 43.8911C105.68 44.4794 106.137 44.9735 106.701 45.3192C107.264 45.6648 107.912 45.8487 108.573 45.8505C110.564 45.8505 112.183 44.2016 112.183 42.1752V31.2559H114.47V42.1752C114.468 45.4616 111.822 48.1352 108.571 48.1352Z" fill="white"/>
<path d="M118.359 24.9609H116.072V42.3251H118.359V24.9609Z" fill="white"/>
<path d="M152.416 24.9609H150.129V42.3251H152.416V24.9609Z" fill="white"/>
<path d="M139.108 42.3261H136.821V24.9043H143.315C144.728 24.9036 146.083 25.4635 147.082 26.4608C148.082 27.4582 148.643 28.8113 148.644 30.2225C148.645 31.6336 148.085 32.9873 147.086 33.9857C146.088 34.9841 144.733 35.5454 143.321 35.5461L139.108 35.5889V42.3261ZM139.108 27.1863V33.3036L143.315 33.2614C144.121 33.2614 144.894 32.9415 145.464 32.3721C146.034 31.8027 146.355 31.0304 146.355 30.2252C146.355 29.4199 146.034 28.6477 145.464 28.0783C144.894 27.5089 144.121 27.189 143.315 27.189L139.108 27.1863Z" fill="white"/>
<path d="M158.338 42.8484C157.364 42.844 156.421 42.5001 155.674 41.8758C154.83 41.1589 154.365 40.1304 154.365 38.9784C154.365 36.4957 156.392 34.7617 159.293 34.7617C161.544 34.7617 163.878 36.2636 164.137 36.4348L163.125 37.9587L163.505 37.3865L163.126 37.9587L164.316 37.1424C163.698 39.3915 160.984 42.4672 158.935 42.8007C158.737 42.8326 158.538 42.8486 158.338 42.8484ZM159.293 37.0459C159.022 37.0459 156.652 37.1007 156.652 38.9784C156.652 39.4628 156.821 39.8517 157.155 40.1353C157.59 40.5045 158.191 40.6076 158.566 40.5462C159.648 40.3701 161.548 39.1671 162.048 37.8698C161.278 37.4798 160.196 37.0459 159.293 37.0459Z" fill="white"/>
<path d="M167.01 47.3268L167.178 47.4014H169.476L176.874 30.6543H174.375L170.77 38.8145L167.06 30.6543H164.548L169.532 41.6164L167.01 47.3268Z" fill="white"/>
<path d="M62.4444 18.9918C61.7106 18.9919 60.9879 18.8136 60.3385 18.4724C59.6891 18.1311 59.1325 17.6372 58.7169 17.0331C58.3012 16.429 58.0389 15.733 57.9526 15.005C57.8662 14.2771 57.9585 13.5391 58.2214 12.8547C58.4842 12.1703 58.9098 11.5601 59.4614 11.0767C60.0131 10.5933 60.6741 10.2513 61.3876 10.0801C62.101 9.90884 62.8455 9.91361 63.5567 10.094C64.2679 10.2743 64.9245 10.6248 65.4698 11.1153L64.7593 11.903C64.342 11.5287 63.8398 11.2614 63.2961 11.1241C62.7524 10.9868 62.1834 10.9836 61.6382 11.1148C61.0929 11.2461 60.5878 11.5078 60.1664 11.8774C59.7449 12.247 59.4197 12.7135 59.2188 13.2366C59.0179 13.7597 58.9473 14.3237 59.0131 14.8801C59.0789 15.4365 59.2792 15.9686 59.5966 16.4305C59.914 16.8924 60.3391 17.2703 60.8352 17.5316C61.3313 17.7929 61.8836 17.9297 62.4444 17.9304C64.0988 17.9304 65.3853 16.7675 65.617 15.1498H62.44V14.09H66.7163V14.6199C66.7163 15.8146 66.277 16.9194 65.488 17.7307C65.0916 18.1345 64.6177 18.4544 64.0948 18.6711C63.5718 18.8877 63.0105 18.9968 62.4444 18.9918Z" fill="white"/>
<path d="M72.8566 18.7277H68.1438V9.95703H72.8566V11.0174H69.2052V17.6668H72.8566V18.7277Z" fill="white"/>
<path d="M72.5129 13.8105H68.6743V14.8714H72.5129V13.8105Z" fill="white"/>
<path d="M79.8273 9.95703H74.2146V11.0179H79.8273V9.95703Z" fill="white"/>
<path d="M77.5524 10.4863H76.4905V18.7562H77.5524V10.4863Z" fill="white"/>
<path d="M92.2663 9.95703H86.6536V11.0179H92.2663V9.95703Z" fill="white"/>
<path d="M89.9909 10.4863H88.929V18.7562H89.9909V10.4863Z" fill="white"/>
<path d="M85.211 9.99414H84.149V18.7566H85.211V9.99414Z" fill="white"/>
<path d="M100.286 18.9102C99.4083 18.9102 98.55 18.65 97.8199 18.1626C97.0897 17.6753 96.5207 16.9825 96.1846 16.172C95.8486 15.3615 95.7607 14.4697 95.932 13.6093C96.1033 12.7489 96.5261 11.9585 97.1471 11.3382C97.768 10.7179 98.5591 10.2954 99.4203 10.1243C100.282 9.95315 101.174 10.041 101.985 10.3767C102.797 10.7124 103.49 11.2809 103.978 12.0104C104.466 12.7398 104.726 13.5973 104.726 14.4746C104.725 15.6506 104.257 16.7782 103.425 17.6097C102.592 18.4413 101.464 18.909 100.286 18.9102ZM100.286 11.1C99.6185 11.1004 98.9656 11.2987 98.4104 11.6698C97.8552 12.0408 97.4226 12.568 97.1673 13.1847C96.9119 13.8014 96.8454 14.4798 96.976 15.1343C97.1065 15.7888 97.4284 16.3899 97.9009 16.8616C98.3734 17.3334 98.9753 17.6546 99.6305 17.7846C100.286 17.9146 100.965 17.8477 101.582 17.5922C102.199 17.3367 102.726 16.9042 103.097 16.3493C103.468 15.7943 103.667 15.142 103.667 14.4746C103.666 13.5795 103.309 12.7214 102.675 12.0887C102.042 11.456 101.182 11.1004 100.286 11.1Z" fill="white"/>
<path d="M107.082 11.8395L111.429 18.7566H112.586V9.99414H111.525V16.9146L107.176 9.99414H106.032L106.021 9.99743V18.7566H107.082V11.8395Z" fill="white"/>
</svg>
